<?xml version="1.0" encoding="UTF-8"?> <svg xmlns="http://www.w3.org/2000/svg" width="249.399" height="223.609" viewBox="0 0 249.399 223.609"><path id="bacha-logo" d="M4211.425,423.656a9.044,9.044,0,0,0,7.3-5.187c1.383-2.418-.3-8.809-3.288-11.861a29.368,29.368,0,0,0-11.838-7.334,18.446,18.446,0,0,0-12.382,1.971,7.485,7.485,0,0,0-2.511,7.479A21.142,21.142,0,0,0,4211.425,423.656Zm-19.081-17.775a6.089,6.089,0,0,1,5.322-1.468,14.3,14.3,0,0,1,7.967,5.347,37.937,37.937,0,0,0,5.468,5.709,9.311,9.311,0,0,0,4.157,1.491c.97-.064.864.458.795.57a5.343,5.343,0,0,1-6.419.786,32.143,32.143,0,0,1-9.085-7.952,14.035,14.035,0,0,0-5.216-3.7C4193.947,406.082,4191.524,406.544,4192.344,405.881ZM4013.586,424.2a21.575,21.575,0,0,0,23.182-15.246,7.618,7.618,0,0,0-2.559-7.635,18.822,18.822,0,0,0-12.634-2.013,30,30,0,0,0-12.084,7.479c-3.056,3.119-4.77,9.641-3.354,12.111a9.239,9.239,0,0,0,7.445,5.3Zm-3.916-6.8a9.554,9.554,0,0,0,4.243-1.539,39.16,39.16,0,0,0,5.591-5.835,14.522,14.522,0,0,1,8.135-5.456,6.191,6.191,0,0,1,5.438,1.491c.822.667-1.626.193-3.061.812h0a14.451,14.451,0,0,0-5.321,3.775,32.705,32.705,0,0,1-9.275,8.12,5.45,5.45,0,0,1-6.551-.8c-.056-.112-.2-.645.8-.567Zm105.8,145.2a2.633,2.633,0,0,0-1.513.227,8.4,8.4,0,0,1,2.277,7.01c-.03,3.216,0,6.429,0,9.641v14.534a6.819,6.819,0,0,1-1.573,4.517c-.176.2-.566.372-.272.812,1.469,0,2.982.03,4.472,0a23.667,23.667,0,0,0,4.58-.19,7.027,7.027,0,0,1-2.174-4.774c-.047-3.634-.055-7.267-.051-10.9,0-1.058.1-1.174,1.171-1.2,1.605-.037,3.22-.052,4.817.034a6.335,6.335,0,0,1,5.069,2.675c.142.2.234.485.625.425V574.984c-.544.033-.677.421-.9.682a5.962,5.962,0,0,1-3.6,2.042,22.684,22.684,0,0,1-6.044.275c-1.085-.108-1.118-.171-1.152-1.241-.022-2.109-.044-4.215,0-6.335a3.46,3.46,0,0,1,3.017-3.853,2.776,2.776,0,0,1,.278-.023,13.633,13.633,0,0,1,6.168.272,8.087,8.087,0,0,1,4.293,2.981,16.876,16.876,0,0,1,1.683,2.855c.116.25.1.682.526.574v-11.47a11.611,11.611,0,0,1-5.023.745q-8.336.079-16.683.109Zm75.374,32.089a21.753,21.753,0,0,1-7.886.462,6.167,6.167,0,0,1-2.237-.667,3.314,3.314,0,0,1-1.953-3.007c-.05-2.791,0-5.59-.028-8.377,0-.585.2-.812.8-.872a33.456,33.456,0,0,1,6.678-.1,6.336,6.336,0,0,1,5.132,2.843.36.36,0,0,0,.372.216,47.971,47.971,0,0,0-.083-10.434,6.633,6.633,0,0,1-3.892,2.731,29.115,29.115,0,0,1-8.062.224c-.715-.052-.959-.373-.938-1.118.033-2.213-.038-4.427,0-6.637a3.133,3.133,0,0,1,2.742-3.484h.152a22.985,22.985,0,0,1,6.66-.142,9.164,9.164,0,0,1,8.159,6.141c.106.257.106.671.681.544-.026-3.727.041-7.483-.115-11.452a9.551,9.551,0,0,1-4.77.768l-19.464.063a2.276,2.276,0,0,0-1.36.217,8.69,8.69,0,0,1,2.319,7.311q0,10.907.043,21.815a8.769,8.769,0,0,1-2.19,7.193,3.281,3.281,0,0,0,1.55.208q9.962,0,19.935-.023a12.549,12.549,0,0,1,4.98.682V587.356a2.438,2.438,0,0,0-.789,1.442,9.054,9.054,0,0,1-6.428,5.888Zm-24.812-6.909c-.187.436-.373.872-.548,1.308a9.072,9.072,0,0,1-6.83,5.847,20.448,20.448,0,0,1-5.561.488,10.924,10.924,0,0,1-3.51-.607,3.615,3.615,0,0,1-2.511-3.458c-.042-2.687,0-5.377-.039-8.057,0-.693.295-.928.909-.976a33.809,33.809,0,0,1,7.452.03,5.751,5.751,0,0,1,3.946,2.3c.218.29.375.771.854.708V574.883a.7.7,0,0,0-.614.372,6.3,6.3,0,0,1-4.948,2.583,42.953,42.953,0,0,1-6.376,0c-1.2-.086-1.223-.116-1.238-1.286,0-2-.036-4,0-6,.057-2.683,1.089-3.76,3.754-4.077a27.957,27.957,0,0,1,5.437-.067,9.274,9.274,0,0,1,8.526,6.078c.123.3.112.745.615.745V561.777a11.559,11.559,0,0,1-5.019.626c-6.276.019-12.556.026-18.835.06-.521,0-1.117-.205-1.7.354a8.143,8.143,0,0,1,2.235,6.82c-.049,1.945,0,3.9.019,5.847q0,9.082.022,18.174a6.952,6.952,0,0,1-1.736,4.926c-.184.194-.373.391-.105.746h1.652l20.233-.056a9.559,9.559,0,0,1,4.354.686c-.034-4.3.071-8.288-.115-12.439C4166.11,587.718,4166.036,587.74,4166.036,587.777Zm-76.2-25.124h-1.531l-.271.3a8.64,8.64,0,0,1,2.269,7.434c-.025,2.422,0,4.844.022,7.267q0,7.979.027,15.961a7.217,7.217,0,0,1-1.813,5.217c-.095.1-.233.22-.128.406a38.5,38.5,0,0,0,9.043-.108,6.931,6.931,0,0,1-2.093-4.785c-.034-3.634-.026-7.271-.068-10.9,0-.715.205-1.066.962-1.088a40.908,40.908,0,0,1,4.979,0,6.612,6.612,0,0,1,5.185,2.772.476.476,0,0,0,.6.235V575.084c-.611.112-.815.585-1.118.9a5.952,5.952,0,0,1-3.07,1.759,24.727,24.727,0,0,1-6.508.32c-.659-.034-1.046-.272-1.036-1.051.038-2.314-.037-4.64.046-6.95a3.216,3.216,0,0,1,2.639-3.261,12.2,12.2,0,0,1,4.012-.346,9.086,9.086,0,0,1,8.235,5.3c.272.544.544,1.084.8,1.617l.171-.063V561.941a12.15,12.15,0,0,1-5.317.689q-8,.026-16.014.022Zm-7.273,7.539a11.887,11.887,0,0,0-8.222-7.748,17.306,17.306,0,0,0-8.481-.04,11.452,11.452,0,0,0-7.638,5.981,17.52,17.52,0,0,0-1.541,3.953,38.126,38.126,0,0,0-.746,13.01,21.24,21.24,0,0,0,2.316,8.455,11.615,11.615,0,0,0,8.234,6.149,18.1,18.1,0,0,0,6.8.048,11.634,11.634,0,0,0,8.57-6.376,17.206,17.206,0,0,0,1.361-3.532,29.635,29.635,0,0,0,.961-8.91c.026-.719.038-1.453.023-2.191a25.557,25.557,0,0,0-1.642-8.8Zm-4.654,19.456a8,8,0,0,1-9.54,6.081,8.179,8.179,0,0,1-1.045-.306,7.23,7.23,0,0,1-4.906-4.893,22.825,22.825,0,0,1-1.3-6.939,34.831,34.831,0,0,1,.575-9.413,17.742,17.742,0,0,1,.544-1.975,8.093,8.093,0,0,1,9.975-5.627,8.19,8.19,0,0,1,1.559.615,7.446,7.446,0,0,1,3.726,4.256,21.582,21.582,0,0,1,1.361,6.924c.045.943,0,1.9,0,2.836a27.7,27.7,0,0,1-.955,8.437Zm-27,.373a12.989,12.989,0,0,1-7.4,4.64,8.289,8.289,0,0,1-10.283-5.627c-.06-.209-.115-.417-.156-.626a26.511,26.511,0,0,1-.849-5.918,27.436,27.436,0,0,1,1.086-9.517,9.747,9.747,0,0,1,2.7-4.546,7.54,7.54,0,0,1,10.435.4,19.6,19.6,0,0,1,3.67,5.638c.4.831.774,1.677,1.167,2.519l.4-.127c-.031-4.844.066-9.689-.093-14.768a5.338,5.338,0,0,1-4.827.872c-.7-.171-1.408-.343-2.119-.5a14.912,14.912,0,0,0-7.391.052,12.729,12.729,0,0,0-8.531,8.332,31,31,0,0,0-.66,19.691,12.536,12.536,0,0,0,13.449,9.838,10.875,10.875,0,0,0,10.928-10.036,3.121,3.121,0,0,0-.077-2.213c-.512.689-.958,1.312-1.444,1.9Zm69.608-202.869v16.512a4.671,4.671,0,0,1-2.326,4.315h10.654a6.242,6.242,0,0,1-2.281-5.239v-23.7a2.73,2.73,0,0,1,.888-2.2h-6.892a1.949,1.949,0,0,1,.936,1.718c0,2.467-2.888,4.189-5.217,4.189a7.268,7.268,0,0,1-2.236-.4v5.217a2.526,2.526,0,0,1,1.438-.395Zm45.464,27.7v8.571a2.077,2.077,0,0,1-1.09,1.669h4.686a1.951,1.951,0,0,1-.864-1.632v-3.868h5.02v3.868a1.95,1.95,0,0,1-.869,1.632h4.674a2.069,2.069,0,0,1-1.088-1.67v-8.571a2.062,2.062,0,0,1,1.088-1.67h-4.688a1.944,1.944,0,0,1,.868,1.632v3.041h-5V414.81a1.94,1.94,0,0,1,.862-1.632h-4.68a2.086,2.086,0,0,1,1.1,1.681Zm-59.841,1.319c0-1.409-1.037-3.093-4.917-3.093-1.073,0-3.584.1-4.237.1a13.066,13.066,0,0,1-1.923-.1,2.05,2.05,0,0,1,1.089,1.942v8.318a1.867,1.867,0,0,1-.95,1.755h4.893a2.194,2.194,0,0,1-1.2-1.942v-3.164h1.187c2.317,0,2.865.47,3.1,2.646.19,1.964.373,2.448,1.224,2.448h2.716a2.859,2.859,0,0,1-1.2-2.337c-.271-2.75-1.032-3.212-2.273-3.678a2.761,2.761,0,0,0,2.508-2.884Zm-6.384,2.079h-.865v-2.713c0-.4.4-.745,1.73-.745,2,0,2.783.548,2.783,1.718-.019,1.323-1.175,1.751-3.634,1.751Zm27.054-3.436a1.951,1.951,0,0,1,.865-1.632H4123a2.071,2.071,0,0,1,1.085,1.67l.018,8.549a2.077,2.077,0,0,1-1.089,1.67h4.681a1.957,1.957,0,0,1-.862-1.632v-2.627l2.105-1.8,2.743,4.159a1.873,1.873,0,0,1,.34,1.017.969.969,0,0,1-.526.895h5.317a11.65,11.65,0,0,1-2.608-2.665l-3.484-5.138,2.341-2.173c.744-.667,1.944-1.442,2.488-1.923h-4.77a.6.6,0,0,1,.314.544c0,.332-.128.6-.743,1.17l-3.537,3.231Zm27.294-.9a4.861,4.861,0,0,0-1.808,2.378,9.022,9.022,0,0,0-.5,3.179,5.108,5.108,0,0,0,0,1.051,5.355,5.355,0,0,0,5.852,4.811,5.186,5.186,0,0,0,3.887-1.39,4.372,4.372,0,0,0,1.2-3.187,3.222,3.222,0,0,1-.589.627,6.907,6.907,0,0,1-1.634,1.088,5.877,5.877,0,0,1-2.518.567,3.174,3.174,0,0,1-2.52-1.017,3.953,3.953,0,0,1-.854-2.68,6.679,6.679,0,0,1,.272-2.012,3.394,3.394,0,0,1,1.032-1.655,3.082,3.082,0,0,1,2.057-.682,3.523,3.523,0,0,1,2.19.838,6.935,6.935,0,0,1,1.426,1.558l.513.838v-5.3a2.47,2.47,0,0,1-.581.343,1.716,1.716,0,0,1-.637.134,13.131,13.131,0,0,1-2.046-.295,6.163,6.163,0,0,0-1.152-.13,6.367,6.367,0,0,0-3.594.943Zm-44.391,8.2a8.6,8.6,0,0,1-1.71,2.955h4.393a1.641,1.641,0,0,1-.611-1.293,1.961,1.961,0,0,1,.313-1.085h5.216a1.941,1.941,0,0,1,.231.995,2.054,2.054,0,0,1-.526,1.394h4.536a8.853,8.853,0,0,1-1.687-2.955l-2.8-7.408a5.642,5.642,0,0,1-.375-1.237.347.347,0,0,1,.148-.3h-3.837a.4.4,0,0,1,.192.373,2.249,2.249,0,0,1-.191.746Zm5.06-6.29h.041l1.863,5.139h-3.864Zm23.365,9.253h9.406a3.428,3.428,0,0,1,1.982.373v-4.588a5.147,5.147,0,0,1-5.016,2.493c-2.046,0-2.558-.373-2.558-1.341v-2.284c.425-.037.974-.052,1.458-.052a4.225,4.225,0,0,1,3.463,1.028v-3.8a4.162,4.162,0,0,1-3.462,1.047c-.483,0-1.033-.019-1.458-.052v-1.659c0-.961.615-1.327,2.278-1.327a5.218,5.218,0,0,1,4.845,2.012v-3.987a3.382,3.382,0,0,1-1.391.257h-9.531a2.075,2.075,0,0,1,1.088,1.669v8.571a2.07,2.07,0,0,1-1.087,1.662Zm8.2-16.43c8.472,0,11.553-6.123,11.553-15.9s-3.07-15.905-11.553-15.905-11.553,6.123-11.553,15.905,3.109,15.916,11.568,15.916Zm0-27.133c3.91,0,5.77,3.481,5.77,11.232s-1.863,11.232-5.77,11.232c-3.353,0-5.771-2.292-5.771-11.232s2.433-11.217,5.787-11.217Zm-97.981,33.334.018,8.537a2.078,2.078,0,0,1-1.087,1.669h4.646a2.636,2.636,0,0,1-1.086-2.236v-7.721h.053l3.246,8.944a1,1,0,0,1,.108.447.942.942,0,0,1-.172.585h3.57a.92.92,0,0,1-.168-.585,1,1,0,0,1,.106-.447l3.483-9.242h.038v8.042a2.654,2.654,0,0,1-1.09,2.236h4.659a2.08,2.08,0,0,1-1.085-1.669v-8.571a2.076,2.076,0,0,1,1.086-1.669h-5.963a.493.493,0,0,1,.185.373,2.3,2.3,0,0,1-.124.689l-2.826,7.561h-.044l-2.825-7.561a2.186,2.186,0,0,1-.127-.689.476.476,0,0,1,.208-.373h-5.885a2.07,2.07,0,0,1,1.1,1.7Zm49.16-17.071a8.463,8.463,0,0,0,6.887-3.175v1.192c0,5.418-2.982,8.2-7.256,8.2a8.83,8.83,0,0,1-8-5.165v9.846a4.329,4.329,0,0,1,2.417-.663,47.381,47.381,0,0,0,6.474.663c6.652,0,12.7-4.71,12.7-15.767,0-9.917-3.071-16.024-11.552-16.024a10.413,10.413,0,0,0-11.45,10.874,8.9,8.9,0,0,0,0,1.33,9.272,9.272,0,0,0,9.8,8.7Zm1.54-16.266a5.147,5.147,0,0,1,.536.023,5.322,5.322,0,0,1,4.811,5.795v.186a5.47,5.47,0,0,1-5.354,5.59c-3.3,0-5.263-1.763-5.258-5.772s1.993-5.807,5.273-5.807Zm-29.184,42.259a1.944,1.944,0,0,1,.321-1.084h5.216a1.95,1.95,0,0,1,.23.995,2.043,2.043,0,0,1-.524,1.394h4.538a8.837,8.837,0,0,1-1.687-2.955l-2.8-7.408a5.427,5.427,0,0,1-.373-1.237.378.378,0,0,1,.146-.294h-3.84a.369.369,0,0,1,.188.373,2.215,2.215,0,0,1-.188.745l-3.295,7.826a8.485,8.485,0,0,1-1.707,2.955h4.391a1.655,1.655,0,0,1-.6-1.294Zm2.981-7.945h.041l1.864,5.139H4070.9Zm.548-28.672V403.66a4.671,4.671,0,0,1-2.329,4.315h10.658a6.215,6.215,0,0,1-2.281-5.24v-23.7a2.717,2.717,0,0,1,.883-2.2h-6.886a1.951,1.951,0,0,1,.928,1.718c0,2.467-2.884,4.188-5.216,4.188a7.288,7.288,0,0,1-2.235-.4v5.217a2.537,2.537,0,0,1,1.443-.4Zm8.769,27.863-.026,8.318a1.84,1.84,0,0,1-.95,1.755h4.893a2.192,2.192,0,0,1-1.2-1.942v-3.164h1.2c2.317,0,2.869.469,3.1,2.646.194,1.964.373,2.448,1.222,2.448h2.72a2.857,2.857,0,0,1-1.2-2.337c-.275-2.75-1.035-3.212-2.277-3.678a2.759,2.759,0,0,0,2.509-2.892c0-1.409-1.032-3.093-4.915-3.093-1.074,0-3.581.1-4.237.1a13.03,13.03,0,0,1-1.919-.1,2.05,2.05,0,0,1,1.1,1.952Zm2.739.518c0-.4.4-.745,1.73-.745,2,0,2.786.548,2.786,1.718,0,1.308-1.161,1.737-3.647,1.737h-.868Zm80.721,90.443c-.111,7.36-.332,14.675-.813,21.86-.028.332-.028.671-.028,1.01a1.147,1.147,0,0,0,.073.425.831.831,0,0,0,.235.373,7.74,7.74,0,0,0,1.088.566q8.713,3.577,17.242,8.094.359.184.716.347c.373.179.615,0,.615-.525-.019-1.088-.056-2.173-.086-3.261,0-.071-.027-.149-.027-.224a1.31,1.31,0,0,0-.6-.969c-.544-.3-1.088-.592-1.632-.864q-5.852-2.981-11.776-5.553c-.488-.212-.977-.414-1.465-.634a1.148,1.148,0,0,1-.79-1.193v-2.068q.031-15.074.056-30.159l-.026.037q.034-15.708.052-31.43c0-1.934,0-1.945-1.721-2.415-.25-.071-.492-.13-.746-.19-.589-.13-.815.034-.815.63,0,1.032.04,2.068.07,3.1q.246,8.6.483,17.209V482c0,.484-.271.745-.648.626q-4.879-1.513-9.8-2.769a.91.91,0,0,1-.623-.771c-.021-.339-.037-.682-.037-1.014.1-5.56.119-11.139.373-16.657.177-3.458.321-6.924.474-10.393a5.7,5.7,0,0,0-.041-.816.539.539,0,0,0-.374-.462,7.259,7.259,0,0,0-1.118-.3q-8.656-1.706-17.395-2.69c-.373-.045-.745-.056-1.118-.071a.5.5,0,0,0-.472.477c.032,1.17.077,2.355.145,3.533a.672.672,0,0,0,.354.428,5.612,5.612,0,0,0,1.118.235c2.634.317,5.261.671,7.884,1.084.5.078,1,.172,1.491.272a.747.747,0,0,1,.6.715,4.389,4.389,0,0,1-.04.98.475.475,0,0,1-.347.335,3.344,3.344,0,0,1-.925-.059c-1.245-.194-2.5-.4-3.745-.567a3.688,3.688,0,0,0-.933-.052c-.148.019-.293.2-.371.346a1.289,1.289,0,0,0-.1.559v6.335a4.21,4.21,0,0,0,.064.6.746.746,0,0,0,.51.567c.436.089.876.175,1.313.246,1.185.194,2.373.373,3.558.608a2.966,2.966,0,0,1,.746.257.523.523,0,0,1,.229.32c.032.4.032.794.032,1.193h0a.343.343,0,0,1-.1.244.339.339,0,0,1-.241.1,3.783,3.783,0,0,1-.92-.075c-1.248-.212-2.5-.425-3.749-.615a4.163,4.163,0,0,0-.928-.075.584.584,0,0,0-.374.305,1.16,1.16,0,0,0-.1.544l0,6.335a1.422,1.422,0,0,0,.084.589.833.833,0,0,0,.37.425,7.274,7.274,0,0,0,1.119.272c1.187.209,2.371.406,3.556.641a3.716,3.716,0,0,1,.925.272.84.84,0,0,1,.34.484,8.24,8.24,0,0,1,.037,1.192h0a.443.443,0,0,1-.466.425c-.627-.093-1.244-.194-1.863-.3-1.187-.2-2.367-.4-3.556-.57a.482.482,0,0,0-.508.4,1.446,1.446,0,0,1-.036.19v6.924a.815.815,0,0,0,.745.812c1.118.213,2.235.414,3.376.641.558.115,1.119.235,1.677.373a.835.835,0,0,1,.645.921c0,.332-.025.652-.048.976a.352.352,0,0,1-.373.335,4.59,4.59,0,0,1-.929-.112c-1.239-.246-2.491-.5-3.726-.712a3.667,3.667,0,0,0-.928-.093.544.544,0,0,0-.374.306,1.366,1.366,0,0,0-.084.567v6.335a2.752,2.752,0,0,0,.037.4.8.8,0,0,0,.467.626c.31.082.617.164.931.227,1.245.246,2.5.5,3.728.771a6,6,0,0,1,.925.291.581.581,0,0,1,.271.305,2.459,2.459,0,0,1,0,1.554.459.459,0,0,1-.423.22c-.688-.1-1.366-.246-2.053-.373-1.117-.212-2.236-.417-3.354-.607h0a.452.452,0,0,0-.47.429q-.018,3.548-.018,7.11a.841.841,0,0,0,.6.746c1.064.231,2.123.462,3.182.7.688.156,1.367.324,2.05.507a.816.816,0,0,1,.585.745,4.539,4.539,0,0,1-.049.976.43.43,0,0,1-.373.294,3.994,3.994,0,0,1-.925-.13c-1.244-.291-2.492-.566-3.727-.816a4.2,4.2,0,0,0-.931-.112.373.373,0,0,0-.373.335,6.369,6.369,0,0,0-.083.745v6.328a.96.96,0,0,0,.775,1.047c.373.1.746.194,1.119.276q5.707,1.26,11.373,2.981c.306.093.618.183.924.272.119.03.246.052.373.071a.455.455,0,0,0,.467-.4v-1.409c-.123-4.073-.258-8.146-.373-12.212-.062-2.3-.071-4.595-.1-6.887q-.064-4.766-.1-9.517a11.6,11.6,0,0,1,.1-1.573v-.041a.321.321,0,0,1,.374-.253c.372.074.743.126,1.116.227q4,1.062,7.956,2.329c1.7.548,1.722.574,1.7,2.5q-.044,7.095-.155,14.145Zm-.663-51.314c0,.287.026.559.044.831a4.171,4.171,0,0,0,.037.421.984.984,0,0,0,.693.958c.31.1.615.19.921.272,2.448.667,4.894,1.368,7.342,2.12.544.168,1.084.35,1.632.544.418.145.6.462.618,1.025v.63c-.025.373-.241.615-.543.526-.746-.2-1.465-.421-2.192-.637-.972-.3-1.948-.566-2.933-.839a.482.482,0,0,0-.176-.026.463.463,0,0,0-.43.488q-.015,3.726-.016,7.453a1.137,1.137,0,0,0,.094.425.832.832,0,0,0,.252.355,4.014,4.014,0,0,0,.724.328c.977.32,1.952.626,2.929.958.544.186,1.085.373,1.631.585a.976.976,0,0,1,.612,1.04c0,.272-.033.544-.033.816v.041a.318.318,0,0,1-.106.212.312.312,0,0,1-.227.075,2.367,2.367,0,0,1-.719-.164c-1.212-.41-2.438-.823-3.656-1.2a5.22,5.22,0,0,0-1.088-.272c-.143,0-.287.145-.373.29a1.491,1.491,0,0,0-.085.581v6.637a2.914,2.914,0,0,0,.071.637.738.738,0,0,0,.236.373,5.634,5.634,0,0,0,.9.421c1.345.466,2.682.924,4.021,1.423a3.47,3.47,0,0,1,.708.372.786.786,0,0,1,.238.373,2.777,2.777,0,0,1,0,1.632.27.27,0,0,1-.271.157,3.57,3.57,0,0,1-.72-.183c-1.2-.436-2.43-.879-3.647-1.289a6.1,6.1,0,0,0-1.089-.291.474.474,0,0,0-.373.272,1.419,1.419,0,0,0-.08.589q0,3.313,0,6.629a2.777,2.777,0,0,0,.073.641.744.744,0,0,0,.233.373,3.372,3.372,0,0,0,.713.373c1.344.5,2.685.984,4.018,1.513a6.011,6.011,0,0,1,.891.465.736.736,0,0,1,.238.373,2.76,2.76,0,0,1,0,1.632.272.272,0,0,1-.255.168,3.136,3.136,0,0,1-.712-.175c-1.154-.44-2.306-.894-3.464-1.308a9.132,9.132,0,0,0-1.275-.373c-.149-.03-.29.112-.372.227a.664.664,0,0,0-.063.373v7.043a.96.96,0,0,0,.069.428,1.525,1.525,0,0,0,.374.514,5.262,5.262,0,0,0,.9.422c1.119.428,2.2.853,3.284,1.308.373.153.724.317,1.088.492a.908.908,0,0,1,.476.715c.023.432,0,.839,0,1.248a.288.288,0,0,1,0,.082.371.371,0,0,1-.473.238c-.483-.171-.97-.35-1.458-.544-1.151-.466-2.306-.935-3.466-1.36-.573-.2-.815-.041-.815.544q-.018,3.417,0,6.834a1.743,1.743,0,0,0,.085.638,1.271,1.271,0,0,0,.373.525,4.716,4.716,0,0,0,.905.444c1.218.5,2.431,1,3.641,1.539a6.408,6.408,0,0,1,.9.485.8.8,0,0,1,.254.372,2.939,2.939,0,0,1,0,1.45.248.248,0,0,1-.237.179,2.6,2.6,0,0,1-.708-.194c-1.152-.488-2.3-.991-3.458-1.461-.425-.175-.853-.32-1.275-.462a.322.322,0,0,0-.1,0,.373.373,0,0,0-.373.373,3.571,3.571,0,0,0-.042.395q0,3.417,0,6.831c0,.138.03.287.03.425a1.161,1.161,0,0,0,.454.745c.3.156.605.328.906.462,4.024,1.725,8.012,3.611,11.966,5.627,1.214.619,1.308.544,1.271-.961-.108-4.1-.272-8.254-.316-12.331-.089-7.733-.112-15.435-.156-23.153l.022.03.093.037q.023-3.518.023-7.047c0-7.341.29-14.571.524-21.837.031-.842.113-1.67.154-2.508q.108-2.206.2-4.427a1.012,1.012,0,0,0-.543-.906c-.548-.216-1.089-.428-1.633-.611q-7.7-2.664-15.531-4.711c-2.779-.664-2.481-.843-2.37,2.235Zm-29.552,56.226c-.081,2.415-.224,4.807-.339,7.211-.03.648-.078,1.3-.094,1.945-.022.853.149,1.058.962,1.23.19.037.374.078.563.112a145.876,145.876,0,0,1,17.542,4.4c.306.1.613.164.919.238a.338.338,0,0,0,.1,0,.373.373,0,0,0,.372-.373c-.032-1.208-.072-2.437-.125-3.652a.916.916,0,0,0-.518-.656c-.552-.182-1.118-.373-1.665-.544q-6.127-1.863-12.3-3.179c-.566-.123-1.118-.257-1.685-.395a.749.749,0,0,1-.483-.607c-.034-.723-.063-1.454-.063-2.173V454.672a1.756,1.756,0,0,0-.108-.589.938.938,0,0,0-.257-.306.339.339,0,0,0-.177-.085c-.745-.093-1.489-.194-2.235-.272a.489.489,0,0,0-.494.451c0,.444,0,.9,0,1.357.115,3.425.275,6.853.346,10.274.15,7.3.258,14.6.212,21.875h0c-.04,3.932-.07,7.871-.133,11.791s-.171,7.822-.319,11.72Zm81.183-38.629a2.744,2.744,0,0,0-.373-.619,1.853,1.853,0,0,0-.5-.372q-2.407-1.3-4.844-2.523a.739.739,0,0,0-.34-.115.641.641,0,0,0-.406.183,1.248,1.248,0,0,0-.212.507c-.354,1.587-.692,3.164-1.064,4.844v.019c.156.775.285,1.427.424,2.068q2.561,11.88,5.095,24.025c.157.745.32,1.49.461,2.236.065.332.095.652.14.976.021.175-.171.373-.3.306-1.275-.745-2.537-1.461-3.809-2.154a4.368,4.368,0,0,0-1.77-.8,7.56,7.56,0,0,0,.083.891q.829,4.155,1.676,8.34c.048.242.115.5.179.745a1.281,1.281,0,0,0,.545.786c.4.268.807.526,1.209.771,1.208.745,2.415,1.465,3.615,2.236.336.22.671.518,1.055.812.134.708.282,1.368.405,2.031.056.309-.149.529-.373.417-.286-.153-.584-.306-.854-.484q-1.8-1.118-3.614-2.236c-.286-.168-.588-.3-.861-.44-.133-.063-.282.164-.253.373.074.488.142.976.238,1.472q.664,3.354,1.334,6.708c.1.5.208,1,.339,1.49a1.466,1.466,0,0,0,.543.813l1.2.816c1.271.816,2.523,1.621,3.779,2.459.979.649,1.043.768,1.312,2.176.048.246.075.488.111.745.034.186-.142.4-.271.324-.344-.194-.682-.373-1.024-.589-1.2-.783-2.4-1.58-3.6-2.352-.286-.179-.58-.306-.854-.451-.129-.078-.315.1-.3.272a5.987,5.987,0,0,0,.072.723q.839,4.255,1.672,8.53a4.293,4.293,0,0,0,.127.507,1.811,1.811,0,0,0,.543.853c.4.294.8.585,1.205.857,1.259.861,2.516,1.707,3.764,2.583a5.752,5.752,0,0,1,.845.69,2.1,2.1,0,0,1,.373.678,4.817,4.817,0,0,1,.321,1.748c0,.183-.168.373-.3.276-.4-.257-.8-.5-1.192-.768-1.256-.861-2.509-1.737-3.771-2.579a2.6,2.6,0,0,0-.671-.32c-.085-.026-.193.078-.193.19a4.479,4.479,0,0,0,.061.935q.773,4.032,1.564,8.109c.279,1.45.373,1.617,1.3,2.292l.338.242c4.289,3.022,8.541,6.1,12.778,9.186.225.164.455.321.675.462a3.368,3.368,0,0,0,.323.134c.111.052.283-.19.242-.373-.31-1.4-.611-2.795-.929-4.192-2.369-10.505-4.512-20.869-6.554-31.15-2.444-12.238-4.924-24.349-7.08-36.241-1.2-6.577-2.5-13.125-3.532-19.575a1.963,1.963,0,0,0-.055-.489Zm20.473,101.209q-.568-2.381-1.158-4.763a7.638,7.638,0,0,0-.288-.793,10.918,10.918,0,0,0-1.687-1.356q-6.782-4.961-13.632-9.857a7,7,0,0,1-1.7-1.36,13.237,13.237,0,0,1-.556-2.3q-5.335-27.469-10.757-53.718c-.115-.566-.217-1.118-.317-1.692-.06-.32.12-.581.341-.477.518.25,1.04.525,1.563.794,1.156.626,2.315,1.282,3.466,1.919.336.186.526-.048.455-.5-.052-.324-.107-.648-.175-.976q-1.973-9.38-3.966-18.584c-.1-.481-.253-.961-.41-1.535h0a2.067,2.067,0,0,0-.543,1.189c-.895,3.667-1.756,7.352-2.718,10.934q-4.4,16.281-9.315,31.553c-2.035,6.357-4.1,12.618-6.44,18.547-.071.164-.119.339-.179.51a.876.876,0,0,0,.339.816c1.065.63,2.128,1.279,3.193,1.916.652.373,1.3.745,1.949,1.118.372.213.622.086.745-.335.033-.119.063-.246.089-.373q.754-3.153,1.491-6.335c.24-1.047.517-2.087.815-3.1a.307.307,0,0,1,.373-.183,4.07,4.07,0,0,1,.876.421c1.118.66,2.236,1.338,3.353,2.02q4.907,3.034,9.753,6.253c.466.306.921.637,1.383.976a1.384,1.384,0,0,1,.511.846c.134.671.275,1.346.395,2.009q.835,4.736,1.677,9.514c.108.66.239,1.341.373,2.02a1.8,1.8,0,0,0,.66,1.069,7.828,7.828,0,0,0,.688.526c6.135,4.356,12.2,8.85,18.261,13.3.223.164.455.317.677.462.363.265.551.045.438-.436Zm-25.4-38.439c-.347-.179-.685-.339-1.027-.559-1.606-1.025-3.238-2.053-4.867-3.056h0c-1.74-1.081-3.491-2.132-5.251-3.179a3.846,3.846,0,0,1-.677-.544.877.877,0,0,1-.2-.433,12.487,12.487,0,0,1,.269-1.565c.971-3.693,1.936-7.408,2.938-11.112.715-2.657,1.49-5.269,2.236-7.9a10.924,10.924,0,0,1,.468-1.181c0-.03.084,0,.12,0a.474.474,0,0,1,.139.2c.131.4.265.809.373,1.208,1.354,5.694,2.542,11.418,3.727,17.176.646,3.127,1.264,6.264,1.887,9.413.078.4.115.812.175,1.215.042.2-.182.406-.293.339Zm-128.248-49.414Zm26.418,35.384a23.381,23.381,0,0,0,5.98-.768,26.162,26.162,0,0,0,12.753-7.341,1.163,1.163,0,0,0,.216-1.245q-.876-3-1.766-5.981a1.929,1.929,0,0,0-.235-.544.356.356,0,0,0-.332-.075,7.746,7.746,0,0,0-.871.924,30.551,30.551,0,0,1-5.167,5.269,19.585,19.585,0,0,1-10.1,4.181,16.851,16.851,0,0,1-11.417-2.448,20.439,20.439,0,0,1-4.682-4.248,28.336,28.336,0,0,1-3.8-6.2,43.817,43.817,0,0,1-3.726-17.381,53.487,53.487,0,0,1,.625-8.735,44.026,44.026,0,0,1,6.143-17.272,3.832,3.832,0,0,0,.347-.719c.022-.071-.105-.272-.181-.272a14.282,14.282,0,0,0-1.68.071c-2.806.347-2.213-.175-3.5,2.665a59.891,59.891,0,0,0-5.028,24.733c0,1.163.24,4.33.508,6.5A45.6,45.6,0,0,0,4087,503.755a34.153,34.153,0,0,0,5.438,9.186,22.441,22.441,0,0,0,17.437,8.071Zm-121.881-31.34c.063.071.139.19.224.149a6.651,6.651,0,0,0,.977-.544c2.358-1.6,4.735-3.168,7.133-4.677.442-.28.895-.522,1.333-.745h0a.206.206,0,0,1,.27.089,3,3,0,0,1,0,1.8,1.449,1.449,0,0,1-.746.813c-.559.372-1.118.708-1.673,1.077-.887.581-1.781,1.166-2.666,1.778a1.493,1.493,0,0,0-.52,1.088c-.02,1.181-.02,2.359-.02,3.533q0,2.467.034,4.912c0,.414.239.6.511.432.556-.335,1.118-.686,1.665-1.04,1-.641,2.01-1.29,3.016-1.9.323-.2.532,0,.544.373s-.022.786-.022,1.178a1.09,1.09,0,0,1-.31.689,3.222,3.222,0,0,1-.666.518c-1.119.746-2.236,1.457-3.354,2.207a7.842,7.842,0,0,0-1,.745,1.725,1.725,0,0,0-.329.67,2.7,2.7,0,0,0-.073.746q.019,3.756.019,7.509a2.236,2.236,0,0,0,.07.649c.026.111.123.216.209.193a2.6,2.6,0,0,0,.658-.317q1.679-1.118,3.354-2.236c.336-.22.671-.418,1.007-.608.212-.123.442,0,.442.306v1.386a1.38,1.38,0,0,1-.438.887c-.712.507-1.446,1-2.173,1.491q-1.342.933-2.683,1.863a1.429,1.429,0,0,0-.409.906c0,.16-.031.328-.031.484v7.509a1.716,1.716,0,0,0,.074.637.326.326,0,0,0,.331.224,2.372,2.372,0,0,0,.66-.373c1.119-.745,2.236-1.532,3.373-2.281a7,7,0,0,1,1.006-.588c.149-.071.313,0,.313.271,0,.443.03.894.03,1.36a1.691,1.691,0,0,1-.426.924l-2.2,1.554q-1.345.932-2.687,1.9a1.419,1.419,0,0,0-.44.895c0,.168-.032.332-.032.488v7.513c0,.227.04.373.06.648s.171.317.32.272a2.541,2.541,0,0,0,.664-.373c1.117-.779,2.236-1.565,3.379-2.333a6.416,6.416,0,0,1,1.01-.6h0a.27.27,0,0,1,.317.22,13.9,13.9,0,0,1,0,1.613,1.056,1.056,0,0,1-.232.473,4.745,4.745,0,0,1-.668.592c-1.02.72-2.028,1.413-3.042,2.136-.458.317-.914.667-1.356,1.017a1.77,1.77,0,0,0-.44.924c0,.242-.029.488-.029.723v5.165q0,1.286.033,2.557c0,.395.258.581.526.395.619-.414,1.241-.839,1.863-1.267.962-.667,1.918-1.338,2.884-1.99.332-.224.548-.093.548.339s0,.782-.03,1.178a1.178,1.178,0,0,1-.315.7,4.186,4.186,0,0,1-.672.563c-1.117.812-2.266,1.606-3.395,2.422a8.719,8.719,0,0,0-1.01.812,1.874,1.874,0,0,0-.319.693,2.775,2.775,0,0,0-.077.745l0,7.5a1.99,1.99,0,0,0,.063.649c.06.141.2.257.333.208a3.8,3.8,0,0,0,.837-.485q5.525-3.994,11.088-7.937c.279-.2.579-.447.851-.682a1.5,1.5,0,0,0,.443-.913c.018-.779.033-1.554.033-2.318q-.072-18.014-.143-36.069,0-1.144.049-2.329a1.644,1.644,0,0,1,.271-.7,1.587,1.587,0,0,1,.5-.418q3.174-1.974,6.377-3.845a17.017,17.017,0,0,1,3.262-1.383,7.158,7.158,0,0,1,1.346-.213,12.152,12.152,0,0,1,.135,1.29c.032,1.718.032,3.447.032,5.165,0,.812.019,1.632.041,2.445,0,.473.279.626.692.4,1.119-.626,2.214-1.263,3.325-1.863.469-.257.935-.507,1.4-.745a.429.429,0,0,1,.134-.06.35.35,0,0,1,.409.276,11.74,11.74,0,0,1,.272,1.36.859.859,0,0,1-.328.608c-1.285.745-2.574,1.49-3.853,2.236-.529.313-1.05.626-1.573,1a1.629,1.629,0,0,0-.354.63,2.376,2.376,0,0,0-.094.708q0,3.6.035,7.177a1.4,1.4,0,0,0,.09.6.319.319,0,0,0,.371.175,7.065,7.065,0,0,0,1.041-.544q2.1-1.275,4.21-2.478a4.492,4.492,0,0,1,.861-.373c.093-.03.193.056.235.153a3.16,3.16,0,0,1-.047,1.751,1.045,1.045,0,0,1-.244.421,4.373,4.373,0,0,1-.689.511c-1.285.768-2.571,1.528-3.856,2.314-.463.283-.929.589-1.391.895a1.5,1.5,0,0,0-.543,1.073c-.027.305-.027.611-.027.913,0,2.02,0,4.04.03,6.056,0,1.49.146,1.565,1.308.831q5.59-3.529,11.262-6.756c.19-.1.373-.216.544-.313a1.9,1.9,0,0,0,.895-1.36,45.525,45.525,0,0,0,.934-4.7,49.34,49.34,0,0,0,.4-12.745,26.366,26.366,0,0,0-1.9-7.639,12.077,12.077,0,0,0-2.372-3.678,6.9,6.9,0,0,0-6.49-2.118c-.222.038-.44.09-.664.135a1.6,1.6,0,0,1,.589-1.025,21.866,21.866,0,0,0,3.98-5.928,25.478,25.478,0,0,0,2.027-6.078,23.708,23.708,0,0,0-1.035-14.359,8.877,8.877,0,0,0-2.494-3.432,5.766,5.766,0,0,0-5.918-.853,42.22,42.22,0,0,0-5.03,2.173,226.96,226.96,0,0,0-24.676,14.559c-.371.257-.764.548-1.143.843a1.334,1.334,0,0,0-.429.883c.042,1.382.1,2.761.153,4.121a.265.265,0,0,0,.075.246Zm17.765-9.812a1.4,1.4,0,0,1,.744-1.382c2.349-1.293,4.7-2.564,7.081-3.7a6.5,6.5,0,0,1,3.531-.69c.423.037.627.347.627.924q.018,1.345.063,2.676c0,.373.272.537.582.373.581-.268,1.192-.54,1.751-.835s.85-.086,1.021.481a2.052,2.052,0,0,1,.145,1.416,5.667,5.667,0,0,1-1.553.939c-.467.257-.929.484-1.4.745a1.254,1.254,0,0,0-.541,1.006c0,.306-.029.611-.029.913q0,3.037.03,6.07a6.884,6.884,0,0,0,.037.879c0,.373.29.567.563.436.466-.22.928-.462,1.4-.689.351-.171.7-.339,1.052-.5.241-.112.422.112.373.417a7.9,7.9,0,0,1-.633,1.979,4.436,4.436,0,0,1-.633.5q-1.4.768-2.8,1.49c-.492.257-.687.034-.712-.626s-.026-1.345-.026-2.02q-.025-5.754-.06-11.508c0-.6-.033-1.189-.075-1.77a.37.37,0,0,0-.156-.3,2.3,2.3,0,0,0-2.3.544.948.948,0,0,0-.231.425,2.721,2.721,0,0,0-.092.7v2.277q.048,8.4.079,16.792c0,.682-.023,1.375-.049,2.068a1.472,1.472,0,0,1-.443.864c-.055.046-.112.088-.17.127q-3.207,1.863-6.373,3.808a.556.556,0,0,1-.328.1.243.243,0,0,1-.23-.171,5.949,5.949,0,0,1-.105-1.069q-.054-11.623-.107-23.261Zm88.879,25.68h-.02a1.842,1.842,0,0,0-.063.425.738.738,0,0,0,.147.336,17.07,17.07,0,0,0,8.536,6.282,8.093,8.093,0,0,0,.9.224.474.474,0,0,0,.158.03.51.51,0,0,0,.515-.507c0-.649.029-1.3.029-1.949V450.89c0-.261.03-.507.049-.783a.8.8,0,0,1,.448-.585,10.275,10.275,0,0,1,2.794-.492,17.66,17.66,0,0,1,12.4,4.58,26.673,26.673,0,0,1,4.864,5.676c.329.5.624,1.017.963,1.512a2.083,2.083,0,0,0,.467.373,2.907,2.907,0,0,0,.271-.5c.633-2.132,1.26-4.271,1.9-6.4a1.089,1.089,0,0,0-.271-1.088,31.048,31.048,0,0,0-7.711-6.678,20.379,20.379,0,0,0-9.173-2.922,19.274,19.274,0,0,0-12.608,3.66,31.324,31.324,0,0,0-7.61,7.862.434.434,0,0,0-.1.175.753.753,0,0,0,0,.373.318.318,0,0,0,.271.179c1.119-.086,2.263-.194,3.389-.272a5.015,5.015,0,0,1,.923.019.352.352,0,0,1,.258.227c.056.373.071.771.094,1.159a1.906,1.906,0,0,1-.444,1.286c-.363.482-.718.979-1.058,1.49a7.412,7.412,0,0,0-.371.7c-.073.131.05.477.177.477l1.491.067a2.019,2.019,0,0,1,.188,1.513.481.481,0,0,1-.373.429c-.433.1-.873.13-1.312.2a6.037,6.037,0,0,0-1.9.343,5.208,5.208,0,0,0-.371.667c-.579,1.442-1.148,2.888-1.7,4.349-.276.745-.473,1.546-.7,2.329-.046.2-.084.393-.11.593a.424.424,0,0,0,.373.51c1.188-.134,2.383-.257,3.571-.373.627-.052,1.256-.119,1.864-.149.533-.026.626.257.649.712a8.81,8.81,0,0,1-.04.976.455.455,0,0,1-.374.421,7.413,7.413,0,0,1-1.118.179c-1.379.153-2.762.3-4.141.477a6.8,6.8,0,0,0-1.119.205,1.1,1.1,0,0,0-.425.373.865.865,0,0,0-.157.372,37.468,37.468,0,0,0-.815,7.136.471.471,0,0,0,.448.474c.5-.037,1-.067,1.489-.13,1.756-.224,3.511-.447,5.273-.615.81-.074.988.115.988.947v.589a.669.669,0,0,1-.44.589c-.373.063-.744.134-1.117.175-1.7.186-3.385.395-5.079.641a5.853,5.853,0,0,0-1.12.242c-.148.045-.281.257-.372.421a.825.825,0,0,0-.063.373,39.36,39.36,0,0,0,.845,6.708.813.813,0,0,0,.164.324.484.484,0,0,0,.272.2,3.158,3.158,0,0,0,.746,0c1.438-.187,2.884-.373,4.326-.544.439-.052.876-.075,1.315-.1a.486.486,0,0,1,.52.417c0,.455,0,.906-.031,1.36a.448.448,0,0,1-.235.272,3.179,3.179,0,0,1-.745.194c-1.442.175-2.892.35-4.326.566-.373.063-.746.175-1.119.272a4.107,4.107,0,0,0-.022.648,25.871,25.871,0,0,0,2.89,7.08c.412-.022.845-.025,1.28-.055.63-.052,1.256-.134,1.863-.156a.375.375,0,0,1,.4.3,2.534,2.534,0,0,1-.131,1.766c-.517.093-1.076.22-1.6.335Zm-26.142,5.813c-1.36.425-2.722.853-4.081,1.327a3.352,3.352,0,0,0-.72.373.6.6,0,0,0-.2.353,2.534,2.534,0,0,0,.07.771q.847,2.825,1.715,5.635c.312,1.006.424,1.04,1.4.745.127-.033.248-.078.373-.119q6.932-2.325,13.937-3.954c.246-.056.5-.119.745-.2.123-.037.242-.116.373-.164a.659.659,0,0,0,.273-.525c-.341-.917-.684-1.833-1.029-2.743-2.632-6.831-5.022-13.788-7.308-20.869-2.721-8.407-5.493-16.833-7.885-25.553-1.319-4.818-2.772-9.585-3.921-14.533a.864.864,0,0,0-.115-.373.9.9,0,0,0-.414-.276,1.263,1.263,0,0,0-.544.033q-2.609.626-5.165,1.327a.906.906,0,0,0-.373.149,1.748,1.748,0,0,0-.425.466,2.209,2.209,0,0,0-.22.623c-.373,1.71-.712,3.417-1.089,5.243h0c.176.585.317,1.081.466,1.561q2.769,8.854,5.549,17.589c.171.533.348,1.058.507,1.606.063.246.114.495.152.746a.709.709,0,0,1-.315.544c-1.346.432-2.7.864-4.036,1.341a5.075,5.075,0,0,0-1.862.812,4.672,4.672,0,0,0,.089.745q.9,3.078,1.821,6.108c.056.174.12.346.192.514l0,.034a.413.413,0,0,0,.556.194c.423-.123.855-.257,1.281-.395,1.286-.417,2.578-.85,3.868-1.234q.554-.136,1.119-.216c.155.5.313.961.446,1.435a.717.717,0,0,1-.389.7c-.308.115-.613.238-.919.331-1.294.414-2.584.824-3.869,1.267-.3.112-.607.253-.908.373a.693.693,0,0,0-.271.567c.092.373.163.745.271,1.118.476,1.61.966,3.208,1.458,4.807a8.957,8.957,0,0,0,.371,1.029h0a.442.442,0,0,0,.574.235c.428-.127.856-.257,1.285-.4,1.337-.447,2.7-.894,4.058-1.3,1.055-.317,1.119-.268,1.428.723.052.168.082.373.127.544a.707.707,0,0,1-.295.544c-.373.149-.746.3-1.119.422-1.292.414-2.586.827-3.875,1.267-.31.119-.615.253-.913.4a.8.8,0,0,0-.319.544,3.967,3.967,0,0,0,.081.577q.91,3.026,1.825,6.018a1.289,1.289,0,0,0,.138.324.494.494,0,0,0,.583.239c.427-.123.855-.253,1.288-.395,1.356-.447,2.718-.891,4.077-1.3a3.807,3.807,0,0,1,.917-.19.547.547,0,0,1,.413.239,1.955,1.955,0,0,1,.354,1.222.7.7,0,0,1-.323.507,10.078,10.078,0,0,1-1.276.477Zm-38.16,23.239a1.6,1.6,0,0,0,.053-.234c.063-.2-.075-.458-.21-.373-.466.235-.935.451-1.4.723-3.354,1.953-6.708,4.01-10.014,6.123-2.258,1.45-2.139,1.621-2.148-1.45q-.062-14.161-.131-28.344v-1.8a5.8,5.8,0,0,0-.044-.872c-.045-.3-.156-.484-.373-.47a3.954,3.954,0,0,0-1.7.544,1.321,1.321,0,0,0-.689,1.166c-.022.768-.022,1.528-.022,2.285q.082,17.325.157,34.612v1.807c0,.3,0,.611-.026.921a1.678,1.678,0,0,1-.543,1.118c-.232.175-.463.354-.691.51-6.8,4.625-13.522,9.488-20.2,14.351-.279.194-.571.373-.843.544-.2.127-.425-.019-.425-.317-.026-.842-.056-1.684-.056-2.542q-.034-30.506-.073-61.059v-8.7c0-.626-.031-1.23-.053-1.841,0-.28-.225-.443-.429-.317-.437.253-.871.526-1.315.812-1.048.693-1.163.976-1.118,2.337.019.775.034,1.55.048,2.318.075,2.3.19,4.576.225,6.905.142,9.708.4,19.333.312,29.209v.041c-.115,11.772-.2,23.518-.625,35.514-.034.961-.107,1.953-.152,2.929-.149,3.242-.374,3.2,1.968,1.49,8.481-6.231,17.007-12.54,25.713-18.42.525-.354,1.043-.689,1.563-1.069a41.73,41.73,0,0,0,4.5-3.633,29.09,29.09,0,0,0,5.591-7.453,55.757,55.757,0,0,0,3.163-7.353Zm22.937-71.259v.033h0Zm30.037,54.91a7.477,7.477,0,0,0-1.863.32,153.959,153.959,0,0,0-14.866,4.26,5.118,5.118,0,0,1-1.825.488,4.322,4.322,0,0,1-.615-1.472c-3.913-12.626-7.827-25.359-11.706-38.331-.125-.421-.234-.853-.343-1.286a.746.746,0,0,1,.348-.746c.543-.216,1.088-.432,1.632-.626,1.227-.425,2.444-.831,3.671-1.241a.747.747,0,0,0,.475-.838c-.059-.246-.114-.5-.191-.746q-2.15-6.782-4.309-13.632c-.108-.347-.257-.663-.421-1.055a4.031,4.031,0,0,0-.562,1.521c-.921,4.1-1.793,8.224-2.766,12.38q-4.472,18.886-9.316,38.756c-2.013,8.269-4.048,16.665-6.335,25.24-.066.235-.112.477-.171.708-.071.306.111.548.335.421l3.209-1.74c.656-.373,1.309-.745,1.968-1.118a1.7,1.7,0,0,0,.743-1.166c.036-.156.066-.309.092-.462q.746-3.909,1.49-7.789.374-1.945.815-3.887a1.312,1.312,0,0,1,.374-.578,5.011,5.011,0,0,1,.894-.544c1.141-.567,2.288-1.088,3.433-1.632q5.074-2.344,10.2-4.352c.489-.19.978-.373,1.466-.522l.074-.03a.374.374,0,0,1,.293.038.368.368,0,0,1,.173.238c.156.462.3.928.429,1.4q.917,3.4,1.837,6.8c.126.477.264.95.417,1.409.108.317.373.373.7.272.246-.071.492-.153.745-.246a151.276,151.276,0,0,1,19.878-5.87c.246-.056.5-.123.745-.194l.085-.022a.578.578,0,0,0,.375-.745q-.628-1.513-1.283-3.015a2.028,2.028,0,0,0-.3-.354Zm-26.045-6.156c-.373.175-.724.373-1.085.514q-2.561,1.012-5.105,2.079h0c-1.823.745-3.631,1.577-5.437,2.392a2.138,2.138,0,0,1-.7.179c-.093,0-.228-.1-.216-.2.071-.585.146-1.178.271-1.77.969-4.513,1.931-8.988,2.94-13.434.723-3.19,1.49-6.365,2.274-9.514.119-.507.309-1.017.476-1.524a.2.2,0,0,1,.127-.1c.052,0,.127,0,.149.056a6.667,6.667,0,0,1,.371.8c1.451,4.04,2.733,8.2,4.012,12.3.682,2.236,1.368,4.472,2.043,6.726.077.306.142.619.189.932a.834.834,0,0,1-.289.585Z" transform="translate(-3987.733 -376.825)" fill="#fff"></path></svg> 