<?xml version="1.0" encoding="UTF-8"?> <svg xmlns="http://www.w3.org/2000/svg" xmlns:xlink="http://www.w3.org/1999/xlink" width="213.6" height="47.833" viewBox="0 0 213.6 47.833"><defs><clipPath id="clip-path"><rect id="Rectangle_1477" data-name="Rectangle 1477" width="213.6" height="47.833" fill="#fff"></rect></clipPath></defs><g id="logo" transform="translate(0 0)"><g id="Group_5065" data-name="Group 5065" transform="translate(0 0)" clip-path="url(#clip-path)"><path id="Path_2" data-name="Path 2" d="M207.156,23.45h5.684L202.267,8.784,212.2,0h-6.479l-10.93,9.5V0h-4.65V23.45h4.65V15.3l4.014-3.418ZM152.306,6.916l3.14,6.279h-6.24Zm8.227,16.534h5.088L154.055.04h-3.5L139.111,23.45H144.2l2.822-5.763h10.612Zm-63.156,0h19.714V19H102.028V13.236h8.585V8.784h-8.585V4.492h14.189V.04H97.377ZM62.918,4.492c2.107,0,2.981.994,2.981,2.583s-.8,2.5-3.1,2.5H54.333V4.492Zm3.5,18.959h5.247L66.1,13.673A6.934,6.934,0,0,0,70.669,7c0-4.412-3.06-6.955-7.711-6.955H49.683V23.45h4.65v-9.38H61.05ZM14.865,12.958a2.72,2.72,0,0,1,2.941,3.021A2.7,2.7,0,0,1,14.865,19H4.65V12.958Zm-.954-8.466c1.908,0,2.464.675,2.464,2.027,0,1.232-.6,1.987-2.464,1.987H4.65V4.492Zm.437,18.959c4.968,0,8.227-2.9,8.227-7.433a7.139,7.139,0,0,0-2.822-5.843A5.7,5.7,0,0,0,21.065,6.36c0-4.173-2.7-6.32-7.393-6.32H0V23.45Z" transform="translate(0 0)" fill="#fff"></path><rect id="Rectangle_1475" data-name="Rectangle 1475" width="114.926" height="3.932" transform="translate(1.177 43.339) rotate(-3.069)" fill="#fff"></rect><rect id="Rectangle_1476" data-name="Rectangle 1476" width="97.447" height="3.932" transform="translate(116.153 43.901)" fill="#fff"></rect></g></g></svg> 