<?xml version="1.0" encoding="UTF-8"?> <svg xmlns="http://www.w3.org/2000/svg" width="71" height="71" viewBox="0 0 71 71"><g id="creative-icon" transform="translate(117 17223)"><rect id="Rectangle_1658" data-name="Rectangle 1658" width="71" height="71" transform="translate(-117 -17223)" fill="#62b6cb"></rect><g id="creativity" transform="translate(-96.499 -17209)"><path id="Path_268" data-name="Path 268" d="M29.583,137.763a13.376,13.376,0,0,1-2.057-7.01.63.63,0,0,0-.63-.63h-.135l2.74-5.6a2.1,2.1,0,0,0-.965-2.808l-2.807-1.369a2.1,2.1,0,0,0-2.809.965l-4.312,8.808H16.742v-3.843a.63.63,0,0,0-1.26,0v3.843H14.39v-3.843a.63.63,0,0,0-1.26,0v3.843H10.487l-1.817-5.34a.636.636,0,0,0-.191-.279L3.655,120.45a.63.63,0,0,0-1.022.353l-1.31,6.271a.639.639,0,0,0,.02.332l.924,2.717H1.682a.63.63,0,0,0-.61.469,21.526,21.526,0,0,0-.573,4.95A14.265,14.265,0,0,0,3.307,144.7a.63.63,0,0,0,.978-.794c-3.468-4.273-2.464-10.738-2.1-12.521H16.317a6.246,6.246,0,0,1-1.952,4.2,3.854,3.854,0,0,0-2.56-1.13,3.529,3.529,0,0,0-.882,6.946,10.384,10.384,0,0,1-4.589,4.546.63.63,0,0,0-.609.629v5.938a.63.63,0,0,0,.63.63h9.914a.63.63,0,0,0,.63-.63v-2.794h1.616a9.522,9.522,0,0,0,9.5-8.989,1.907,1.907,0,0,0,1.61-.994,1.938,1.938,0,0,0-.039-1.968Zm-5.53-15.894a.843.843,0,0,1,1.125-.387l2.807,1.369a.845.845,0,0,1,.385,1.121l-.494,1.01-1.107-.54a.63.63,0,0,0-.553,1.133l1.105.539-.964,1.969-1.8-.876a.63.63,0,0,0-.552,1.132l1.8.876-.444.907H20.012ZM7,130.123l-.826-2.493,1.62-1.517,1.364,4.01Zm-3.609-6.778,1.255-.418,2.481,2.084-1.9,1.776L2.7,126.623Zm-.549,4.549,2.139.14.692,2.089H3.6Zm25.68,11.226a.657.657,0,0,1-.575.346H27.4a.662.662,0,0,0-.63.737,8.259,8.259,0,0,1-8.25,8.25H16.269a.63.63,0,0,0-.63.63v2.794H6.985v-4.85a11.46,11.46,0,0,0,5.447-5.917.63.63,0,0,0-.611-.863H11.8a2.268,2.268,0,0,1,0-4.537,2.683,2.683,0,0,1,1.969,1.107.63.63,0,0,0,.847.162,7.273,7.273,0,0,0,2.958-5.6h8.7a14.734,14.734,0,0,0,2.226,7.034.692.692,0,0,1,.013.7Zm0,0" transform="translate(0 -110.021)" fill="#fff"></path><path id="Path_269" data-name="Path 269" d="M229.13,276.8a2.313,2.313,0,0,0-2.31,2.31.63.63,0,0,0,1.26,0,1.05,1.05,0,1,1,2.1,0,.63.63,0,0,0,1.26,0A2.313,2.313,0,0,0,229.13,276.8Zm0,0" transform="translate(-207.262 -253.487)" fill="#fff"></path><path id="Path_270" data-name="Path 270" d="M38.691,39.718h.653v.653a.63.63,0,0,0,1.26,0v-.653h.653a.63.63,0,0,0,0-1.26H40.6V37.8a.63.63,0,0,0-1.26,0v.653h-.653A.63.63,0,0,0,38.691,39.718Zm0,0" transform="translate(-34.417 -34.062)" fill="#fff"></path><path id="Path_271" data-name="Path 271" d="M233.611,2.8h.653v.653a.63.63,0,0,0,1.26,0V2.8h.654a.63.63,0,0,0,0-1.26h-.654V.89a.63.63,0,0,0-1.26,0v.653h-.653a.631.631,0,0,0,0,1.261Zm0,0" transform="translate(-212.923 -0.257)" fill="#fff"></path><path id="Path_272" data-name="Path 272" d="M285.487,58.674h.653v.653a.63.63,0,0,0,1.26,0v-.653h.653a.63.63,0,0,0,0-1.26H287.4V56.76a.63.63,0,0,0-1.26,0v.654h-.653A.63.63,0,0,0,285.487,58.674Zm0,0" transform="translate(-260.43 -51.422)" fill="#fff"></path><path id="Path_273" data-name="Path 273" d="M112.578,15.685a.658.658,0,0,0,.7-.2c.026-.032.626-.772,1.261-1.626a3.773,3.773,0,0,0,2.6,1.024h.01a3.824,3.824,0,0,0,2.617-1.037c.624.849,1.213,1.583,1.239,1.615a.637.637,0,0,0,1.121-.391l.021-3.93a1.887,1.887,0,0,0-.556-1.352,1.933,1.933,0,0,0-.6-.407l.015-2.68A8.525,8.525,0,0,0,117.624.148a.63.63,0,0,0-.8.97A7.844,7.844,0,0,1,119.6,5.342l-4.8.012a6.845,6.845,0,0,1,.89-2.073.631.631,0,0,0-1.065-.673,7.683,7.683,0,0,0-1.25,4.107L113.354,9.4a1.939,1.939,0,0,0-1.172,1.758l-.021,3.93a.629.629,0,0,0,.418.6Zm.864-4.52a.689.689,0,0,1,.7-.669h0a.686.686,0,0,1,.491.2.637.637,0,0,1,.188.422,12.3,12.3,0,0,1-1.391,2.124Zm7.434,2.068a12.1,12.1,0,0,1-1.367-2.116.691.691,0,0,1,.7-.636h0a.687.687,0,0,1,.491.2.637.637,0,0,1,.188.455ZM119.748,6.6c0,.032,0,.064,0,.1l-.014,2.581a1.945,1.945,0,0,0-1.487,1.865c0,.241.069.594.782,1.663a2.574,2.574,0,0,1-1.883.821h-.007a2.522,2.522,0,0,1-1.857-.8c.724-1.071.8-1.424.8-1.665a1.888,1.888,0,0,0-.556-1.352,1.926,1.926,0,0,0-.911-.512l.014-2.574c0-.036,0-.071,0-.106Zm0,0" transform="translate(-102.258 0)" fill="#fff"></path><path id="Path_274" data-name="Path 274" d="M126.139,324.1a.631.631,0,0,0,0,1.26A.631.631,0,0,0,126.139,324.1Zm0,0" transform="translate(-114.502 -296.808)" fill="#fff"></path></g></g></svg> 