<?xml version="1.0" encoding="UTF-8"?> <svg xmlns="http://www.w3.org/2000/svg" width="71" height="71" viewBox="0 0 71 71"><g id="crm-icon" transform="translate(1112 17524)"><rect id="Rectangle_1658" data-name="Rectangle 1658" width="71" height="71" transform="translate(-1112 -17524)" fill="#62b6cb"></rect><path id="management" d="M5.011,23.537a17.311,17.311,0,0,1,5.778-8.781,17.6,17.6,0,0,1,2.363-1.62.681.681,0,1,1,.675,1.182,16.235,16.235,0,0,0-2.18,1.494,15.957,15.957,0,0,0-5.327,8.094.681.681,0,1,1-1.31-.369Zm23.18,19.47A16.079,16.079,0,0,1,15,42.841a.681.681,0,1,0-.573,1.234,17.44,17.44,0,0,0,14.309.179.68.68,0,1,0-.544-1.248Zm1.539-28.69a16.107,16.107,0,0,1,7.6,9.935.681.681,0,0,0,1.318-.34A17.468,17.468,0,0,0,30.4,13.134a.681.681,0,0,0-.673,1.183ZM15.784,16.792V11.966c0-1.335,1.007-2.359,2.762-2.81A12.923,12.923,0,0,1,20,8.87a4.162,4.162,0,0,1-1.3-3.118,2.925,2.925,0,0,1,3.071-3.169,2.925,2.925,0,0,1,3.071,3.169,4.16,4.16,0,0,1-1.3,3.122A13.944,13.944,0,0,1,25,9.154c1.759.436,2.768,1.461,2.768,2.811v4.826a.681.681,0,1,1-1.361,0V11.966c0-.922-1.087-1.33-1.735-1.49a11.7,11.7,0,0,0-5.79,0c-.794.2-1.74.628-1.74,1.492v4.826a.681.681,0,0,1-1.361,0Zm4.283-11.04c0,1.334.783,2.462,1.71,2.462s1.71-1.127,1.71-2.462c0-1.494-.93-1.807-1.71-1.807S20.067,4.259,20.067,5.753ZM18.2,13.075v3.717a.681.681,0,0,0,1.361,0V13.075a.681.681,0,1,0-1.361,0Zm5.8,0v3.717a.681.681,0,1,0,1.361,0V13.075a.681.681,0,1,0-1.361,0Zm19.56,23.574v4.826a.681.681,0,1,1-1.361,0V36.649c0-.922-1.087-1.33-1.734-1.49a11.7,11.7,0,0,0-5.79,0c-.794.2-1.74.629-1.74,1.492v4.826a.681.681,0,1,1-1.361,0V36.649c0-1.335,1.007-2.359,2.762-2.81a12.9,12.9,0,0,1,1.457-.285,4.162,4.162,0,0,1-1.3-3.118,3.073,3.073,0,1,1,6.143,0,4.16,4.16,0,0,1-1.3,3.122,13.923,13.923,0,0,1,1.457.279c1.759.436,2.768,1.461,2.768,2.811Zm-7.7-6.213c0,1.334.783,2.462,1.71,2.462s1.71-1.127,1.71-2.462c0-1.494-.93-1.807-1.71-1.807S35.852,28.942,35.852,30.436Zm-1.188,6.642a.681.681,0,0,0-.681.681v3.717a.681.681,0,1,0,1.361,0V37.758a.681.681,0,0,0-.681-.681Zm5.8,0a.681.681,0,0,0-.681.681v3.717a.681.681,0,1,0,1.361,0V37.758a.681.681,0,0,0-.681-.681Zm-28.474-.429v4.826a.681.681,0,1,1-1.361,0V36.649c0-.922-1.087-1.33-1.734-1.49a11.7,11.7,0,0,0-5.79,0c-.794.2-1.74.629-1.74,1.492v4.826a.681.681,0,1,1-1.361,0V36.649c0-1.335,1.007-2.359,2.762-2.81a12.925,12.925,0,0,1,1.457-.286,4.162,4.162,0,0,1-1.3-3.118,2.925,2.925,0,0,1,3.071-3.169,2.925,2.925,0,0,1,3.071,3.169,4.16,4.16,0,0,1-1.3,3.122,13.946,13.946,0,0,1,1.457.279C10.978,34.274,11.987,35.3,11.987,36.649Zm-7.7-6.213c0,1.334.783,2.462,1.71,2.462S7.7,31.77,7.7,30.436c0-1.494-.93-1.807-1.71-1.807s-1.71.314-1.71,1.807ZM3.095,37.078a.681.681,0,0,0-.681.681v3.717a.681.681,0,1,0,1.361,0V37.758A.681.681,0,0,0,3.095,37.078Zm5.8,0a.681.681,0,0,0-.681.681v3.717a.681.681,0,1,0,1.361,0V37.758A.681.681,0,0,0,8.892,37.078Zm17.688-8.8a4.8,4.8,0,1,1-4.8-4.8A4.808,4.808,0,0,1,26.58,28.277Zm-1.361,0a3.441,3.441,0,1,0-3.441,3.441A3.445,3.445,0,0,0,25.219,28.277Zm5.309-.806v1.613a.681.681,0,0,1-.436.635l-1.012.389a7.437,7.437,0,0,1-.845,2.037l.44.992a.68.68,0,0,1-.141.757l-1.14,1.14a.681.681,0,0,1-.757.141l-.991-.44a7.436,7.436,0,0,1-2.038.845l-.389,1.011a.68.68,0,0,1-.635.436H20.971a.681.681,0,0,1-.635-.436l-.389-1.012a7.438,7.438,0,0,1-2.037-.845l-.992.44a.681.681,0,0,1-.757-.141l-1.14-1.14a.681.681,0,0,1-.141-.757l.44-.991a7.438,7.438,0,0,1-.845-2.038l-1.011-.389a.68.68,0,0,1-.436-.635V27.471a.681.681,0,0,1,.436-.635l1.011-.389a7.436,7.436,0,0,1,.845-2.037l-.44-.991a.68.68,0,0,1,.141-.757l1.14-1.14a.681.681,0,0,1,.757-.141l.992.44a7.441,7.441,0,0,1,2.037-.845l.389-1.012a.681.681,0,0,1,.635-.436h1.613a.681.681,0,0,1,.635.436l.389,1.012a7.438,7.438,0,0,1,2.037.845l.992-.44a.681.681,0,0,1,.757.141l1.141,1.14a.68.68,0,0,1,.141.757l-.44.991a7.44,7.44,0,0,1,.845,2.038l1.011.389A.68.68,0,0,1,30.528,27.47Zm-1.361.467-.915-.352a.681.681,0,0,1-.423-.5,6.1,6.1,0,0,0-.927-2.237.68.68,0,0,1-.057-.656l.4-.9-.48-.48-.9.4a.681.681,0,0,1-.656-.057,6.1,6.1,0,0,0-2.236-.927.681.681,0,0,1-.5-.423l-.353-.916h-.678l-.353.916a.681.681,0,0,1-.5.423,6.1,6.1,0,0,0-2.236.927.681.681,0,0,1-.656.057l-.9-.4-.48.48.4.9a.681.681,0,0,1-.057.656,6.1,6.1,0,0,0-.927,2.236.68.68,0,0,1-.423.5l-.916.353v.678l.915.352a.681.681,0,0,1,.423.5,6.1,6.1,0,0,0,.927,2.237.681.681,0,0,1,.057.656l-.4.9.48.48.9-.4a.68.68,0,0,1,.656.057,6.1,6.1,0,0,0,2.236.927.68.68,0,0,1,.5.423l.353.916h.678l.352-.915a.681.681,0,0,1,.5-.423A6.1,6.1,0,0,0,25.21,33.4a.681.681,0,0,1,.656-.057l.9.4.48-.48-.4-.9a.681.681,0,0,1,.057-.656,6.1,6.1,0,0,0,.927-2.236.68.68,0,0,1,.423-.5l.916-.353v-.678Z" transform="translate(-1098 -17512.584)" fill="#fff"></path></g></svg> 