<?xml version="1.0" encoding="UTF-8"?> <svg xmlns="http://www.w3.org/2000/svg" width="71" height="71" viewBox="0 0 71 71"><g id="digital-design-icon" transform="translate(1227 17405)"><rect id="Rectangle_1609" data-name="Rectangle 1609" width="71" height="71" transform="translate(-1227 -17405)" fill="#62b6cb"></rect><g id="digital-art" transform="translate(-1211 -17390.998)"><path id="Path_276" data-name="Path 276" d="M219.913,365.719a.839.839,0,1,0,.593.246A.845.845,0,0,0,219.913,365.719Zm0,0" transform="translate(-200.709 -335.062)" fill="#fff"></path><path id="Path_277" data-name="Path 277" d="M34.208,6.348H17.251L11.856.953A3.261,3.261,0,0,0,7.244,5.564l.783.783H4.193A4.2,4.2,0,0,0,0,10.54v5.555a.838.838,0,0,0,1.677,0V10.54A2.518,2.518,0,0,1,4.193,8.024H9.7L16.276,14.6h0l3.828,3.828a.818.818,0,0,0,.166.127,5.623,5.623,0,0,0-.073.894,5.517,5.517,0,0,0,1.627,3.927c1.76,1.761,3.943,2.576,7.054,2.576a22.822,22.822,0,0,0,2.486-.148.839.839,0,0,0,.5-1.426c-1.045-1.045-.929-2.165-.783-3.584.161-1.561.362-3.5-1.406-5.272a5.549,5.549,0,0,0-4.838-1.548.858.858,0,0,0-.123-.158l-5.79-5.79H34.208a2.518,2.518,0,0,1,2.516,2.516V27.806H1.677V23.64A.838.838,0,1,0,0,23.64v7.352a4.2,4.2,0,0,0,4.192,4.192H15.012v2.707a4.2,4.2,0,0,0-4.111,4.19.839.839,0,0,0,.839.838H26.668a.838.838,0,0,0,.839-.838,4.2,4.2,0,0,0-4.11-4.19V35.184H34.208A4.2,4.2,0,0,0,38.4,30.992V10.54a4.2,4.2,0,0,0-4.192-4.192ZM8.43,2.138a1.585,1.585,0,0,1,2.24,0l8.435,8.436-2.24,2.24L8.43,4.379A1.586,1.586,0,0,1,8.43,2.138ZM23.048,22.224a3.357,3.357,0,0,1,2.833-1.864,5.027,5.027,0,0,0,3.583-1.78,8.212,8.212,0,0,1-.047,2.039,6.6,6.6,0,0,0,.327,3.632c-3.083.146-5.133-.487-6.7-2.027Zm5.445-5.518c.043.043.084.086.124.13a3.356,3.356,0,0,1-2.827,1.851,5.028,5.028,0,0,0-3.726,1.959,3.89,3.89,0,0,1-.189-1.2,3.878,3.878,0,0,1,6.618-2.741Zm-6.667-1.187h0L20.7,16.647,18.055,14l2.24-2.24,2.643,2.643Zm3.86,25.724H12.722a2.519,2.519,0,0,1,2.371-1.677h8.221a2.519,2.519,0,0,1,2.371,1.677Zm-3.967-3.37h-5.03V35.184h5.03Zm12.489-4.365H4.193a2.518,2.518,0,0,1-2.515-2.516V29.483H36.724v1.509a2.518,2.518,0,0,1-2.516,2.516Zm0,0" transform="translate(0)" fill="#fff"></path><path id="Path_278" data-name="Path 278" d="M.839,228.685a.838.838,0,1,0-.593-1.431.838.838,0,0,0,.593,1.431Zm0,0" transform="translate(0 -207.979)" fill="#fff"></path></g></g></svg> 