<?xml version="1.0" encoding="UTF-8"?> <svg xmlns="http://www.w3.org/2000/svg" xmlns:xlink="http://www.w3.org/1999/xlink" id="FEO-logo" width="391.592" height="92.97" viewBox="0 0 391.592 92.97"><defs><clipPath id="clip-path"><rect id="Rectangle_1640" data-name="Rectangle 1640" width="391.592" height="92.97" fill="none"></rect></clipPath><clipPath id="clip-path-2"><path id="Path_247" data-name="Path 247" d="M12.415,107.992v8.8H25.877v-13.7Z" transform="translate(-12.415 -103.092)" fill="none"></path></clipPath><clipPath id="clip-path-4"><path id="Path_249" data-name="Path 249" d="M43.077,35H53.846V45.77H43.077ZM16.153,0A8.077,8.077,0,0,0,8.077,8.077V45.769H0V59.23H61.922a5.385,5.385,0,0,0,5.385-5.384V26.923a5.385,5.385,0,0,0-5.385-5.384H35a5.384,5.384,0,0,0-5.385,5.384V45.769H21.539V13.462H75.384V67.308H43.077V59.231l-13.462,4.9v8.561a8.077,8.077,0,0,0,8.077,8.078H80.769a8.076,8.076,0,0,0,8.076-8.077V8.077A8.076,8.076,0,0,0,80.769,0Z" fill="none"></path></clipPath></defs><path id="Path_225" data-name="Path 225" d="M169.716,0V35.1h4.062v-15.7h14.894V15.747H173.777V3.711h15.948V0Z" transform="translate(-59.302 0)" fill="#fff"></path><g id="Group_5129" data-name="Group 5129"><g id="Group_5128" data-name="Group 5128" clip-path="url(#clip-path)"><path id="Path_226" data-name="Path 226" d="M202.4,26.614c0-8.024,5.316-13.741,12.688-13.741a10.677,10.677,0,0,1,9.177,4.864h.3V13.525h3.961V39.6h-3.811V35.49h-.3a10.672,10.672,0,0,1-9.027,4.765c-7.672,0-12.988-5.667-12.988-13.641m22.316,0c0-6.419-4.012-10.13-9.178-10.13-5.365,0-9.076,4.213-9.076,10.13,0,6.118,3.711,10.08,9.177,10.08,5.667,0,9.077-4.614,9.077-10.08" transform="translate(-70.722 -4.498)" fill="#fff"></path><path id="Path_227" data-name="Path 227" d="M251.038,13.875h3.912v4.864h.3a7.582,7.582,0,0,1,7.121-4.864h2.207v3.961h-2.157c-4.764,0-7.422,3.712-7.422,8.676v13.44h-3.961Z" transform="translate(-87.718 -4.848)" fill="#fff"></path><path id="Path_228" data-name="Path 228" d="M293.32,0h20.009V3.711H297.382V15.4h13.74v3.661h-13.74V31.443h16.5V35.1H293.32Z" transform="translate(-102.492 0)" fill="#fff"></path><path id="Path_229" data-name="Path 229" d="M327.18,26.614c0-8.024,5.316-13.741,12.688-13.741a10.678,10.678,0,0,1,9.177,4.864h.3V13.525h3.962V39.6H349.5V35.49h-.3a10.672,10.672,0,0,1-9.027,4.765c-7.672,0-12.988-5.667-12.988-13.641m22.316,0c0-6.419-4.012-10.13-9.178-10.13-5.365,0-9.076,4.213-9.076,10.13,0,6.118,3.711,10.08,9.177,10.08,5.667,0,9.077-4.614,9.077-10.08" transform="translate(-114.323 -4.498)" fill="#fff"></path><path id="Path_230" data-name="Path 230" d="M373.506,32.03h3.862c.451,3.109,2.658,4.764,6.469,4.764,3.912,0,6.068-1.906,6.068-4.563,0-7.322-15.6-1.756-15.6-12.086,0-4.414,3.961-7.272,9.428-7.272,4.814,0,8.826,2.809,9.227,7.523h-3.811c-.351-2.457-2.207-4.112-5.667-4.112-3.26,0-5.366,1.6-5.366,3.862,0,6.619,15.646,1.1,15.646,11.885,0,4.914-4.062,8.225-10.13,8.225-6.169,0-9.679-3.36-10.13-8.225" transform="translate(-130.511 -4.498)" fill="#fff"></path><path id="Path_231" data-name="Path 231" d="M411.368,28.012V13.168h-4.914V9.808h3.911a1.2,1.2,0,0,0,1.254-1.3V2.236h3.711V9.808h8.024v3.36H415.33V27.962c0,2.809,1.053,4.463,4.062,4.463H423v3.46h-3.861c-4.814,0-7.773-2.608-7.773-7.873" transform="translate(-142.023 -0.781)" fill="#fff"></path><path id="Path_232" data-name="Path 232" d="M166.486,87.4a18.16,18.16,0,1,1,36.319,0,17.777,17.777,0,0,1-18.21,18.21c-10.435,0-18.11-7.776-18.11-18.21m32.105,0c0-8.227-5.92-14.4-13.946-14.4S170.7,79.171,170.7,87.4c0,8.327,5.919,14.4,13.946,14.4s13.946-6.07,13.946-14.4" transform="translate(-58.174 -24.176)" fill="#fff"></path><path id="Path_233" data-name="Path 233" d="M228.48,84.07h3.913v4.866h.3a7.585,7.585,0,0,1,7.124-4.866h2.207v3.963h-2.157c-4.766,0-7.424,3.712-7.424,8.678v13.444H228.48Z" transform="translate(-79.836 -29.376)" fill="#fff"></path><path id="Path_234" data-name="Path 234" d="M252.179,113.87h3.762c.7,3.06,3.712,4.665,7.575,4.665,6.12,0,8.879-3.412,8.879-8.729v-4.114h-.3a10.678,10.678,0,0,1-9.03,4.766c-7.675,0-12.993-5.669-12.993-13.645,0-8.026,5.318-13.745,12.691-13.745a10.681,10.681,0,0,1,9.18,4.866h.3V83.721h3.963v26.086c0,7.675-4.866,12.19-12.691,12.19-6.371,0-10.484-3.461-11.337-8.126M272.4,96.813c0-6.421-4.013-10.133-9.18-10.133-5.367,0-9.08,4.214-9.08,10.133,0,6.12,3.713,10.083,9.181,10.083,5.668,0,9.079-4.615,9.079-10.083" transform="translate(-87.38 -29.026)" fill="#fff"></path><path id="Path_235" data-name="Path 235" d="M295.642,96.813c0-8.026,5.318-13.745,12.691-13.745a10.681,10.681,0,0,1,9.18,4.866h.3V83.721h3.963v26.086h-3.812v-4.114h-.3a10.678,10.678,0,0,1-9.03,4.766c-7.675,0-12.993-5.669-12.993-13.645m22.323,0c0-6.421-4.013-10.133-9.18-10.133-5.367,0-9.08,4.214-9.08,10.133,0,6.12,3.713,10.083,9.181,10.083,5.669,0,9.079-4.615,9.079-10.083" transform="translate(-103.303 -29.026)" fill="#fff"></path><path id="Path_236" data-name="Path 236" d="M344.3,83.72h3.963v3.812h.3c1.1-2.358,3.913-4.464,7.976-4.464,6.07,0,9.732,4.565,9.732,10.334v16.4h-3.963V93.652a6.6,6.6,0,0,0-6.722-6.872,7.243,7.243,0,0,0-7.324,7.475v15.551H344.3Z" transform="translate(-120.304 -29.026)" fill="#fff"></path><path id="Path_237" data-name="Path 237" d="M385.318,70.814a2.885,2.885,0,1,1,2.859,2.909,2.8,2.8,0,0,1-2.859-2.909m.8,7.625h3.963v26.086h-3.963Z" transform="translate(-134.638 -23.745)" fill="#fff"></path><path id="Path_238" data-name="Path 238" d="M398.811,106.8l14.8-19.063v-.3H399.263V84.07h19.163v3.361l-14.8,19.063v.3h15.05v3.361H398.811Z" transform="translate(-139.353 -29.376)" fill="#fff"></path><path id="Path_239" data-name="Path 239" d="M432.431,96.813c0-8.026,5.317-13.745,12.692-13.745a10.681,10.681,0,0,1,9.18,4.866h.3V83.721h3.963v26.086h-3.812v-4.114h-.3a10.678,10.678,0,0,1-9.03,4.766c-7.676,0-12.993-5.669-12.993-13.645m22.323,0c0-6.421-4.013-10.133-9.18-10.133-5.368,0-9.08,4.214-9.08,10.133,0,6.12,3.712,10.083,9.181,10.083,5.668,0,9.08-4.615,9.08-10.083" transform="translate(-151.1 -29.026)" fill="#fff"></path><path id="Path_240" data-name="Path 240" d="M482.146,98.211V83.363H477.23V80h3.913a1.2,1.2,0,0,0,1.254-1.3v-6.27h3.712V80h8.027v3.361h-8.027v14.8c0,2.809,1.054,4.465,4.064,4.465h3.612v3.461h-3.862c-4.816,0-7.776-2.608-7.776-7.876" transform="translate(-166.754 -25.307)" fill="#fff"></path><path id="Path_241" data-name="Path 241" d="M508.15,70.814a2.885,2.885,0,1,1,2.859,2.909,2.8,2.8,0,0,1-2.859-2.909m.8,7.625h3.963v26.086h-3.963Z" transform="translate(-177.558 -23.745)" fill="#fff"></path><path id="Path_242" data-name="Path 242" d="M520.873,96.763a13.62,13.62,0,1,1,13.594,13.7,13.332,13.332,0,0,1-13.594-13.7m23.176,0c0-5.769-3.963-10.083-9.582-10.083s-9.531,4.364-9.531,10.083c0,5.869,3.963,10.083,9.531,10.083,5.619,0,9.582-4.263,9.582-10.083" transform="translate(-182.004 -29.026)" fill="#fff"></path><path id="Path_243" data-name="Path 243" d="M568.139,83.72H572.1v3.812h.3c1.1-2.358,3.913-4.464,7.976-4.464,6.07,0,9.733,4.565,9.733,10.334v16.4h-3.963V93.652a6.6,6.6,0,0,0-6.722-6.872,7.243,7.243,0,0,0-7.323,7.475v15.551h-3.963Z" transform="translate(-198.519 -29.026)" fill="#fff"></path><path id="Path_244" data-name="Path 244" d="M25.876,91.043H12.415v12.739l13.461-4.9Z" transform="translate(-4.338 -31.812)" fill="#fff"></path><path id="Path_245" data-name="Path 245" d="M58.983,91.043H45.522v4.9Z" transform="translate(-15.906 -31.812)" fill="#fff"></path><path id="Path_246" data-name="Path 246" d="M12.415,116.791H25.876v-13.7l-13.461,4.9Z" transform="translate(-4.338 -36.023)" fill="#fff"></path></g></g><g id="Group_5131" data-name="Group 5131" transform="translate(8.077 67.07)"><g id="Group_5130" data-name="Group 5130" clip-path="url(#clip-path-2)"><rect id="Rectangle_1641" data-name="Rectangle 1641" width="88.846" height="80.769" transform="translate(-8.077 -67.07)" fill="#fff"></rect></g></g><g id="Group_5133" data-name="Group 5133"><g id="Group_5132" data-name="Group 5132" clip-path="url(#clip-path)"><path id="Path_248" data-name="Path 248" d="M80.769,0H16.153A8.077,8.077,0,0,0,8.077,8.077V45.769H0V59.231H61.923a5.385,5.385,0,0,0,5.384-5.385V26.923a5.384,5.384,0,0,0-5.384-5.384H35a5.385,5.385,0,0,0-5.385,5.384V45.769H21.538V13.462H75.384V67.308H43.077V59.231l-13.462,4.9v8.562a8.077,8.077,0,0,0,8.077,8.077H80.769a8.077,8.077,0,0,0,8.077-8.077V8.077A8.077,8.077,0,0,0,80.769,0M43.077,35H53.846V45.769H43.077Z" fill="#fff"></path></g></g><g id="Group_5135" data-name="Group 5135"><g id="Group_5134" data-name="Group 5134" clip-path="url(#clip-path-4)"><rect id="Rectangle_1643" data-name="Rectangle 1643" width="88.846" height="80.769" fill="#fff"></rect></g></g></svg> 