<?xml version="1.0" encoding="UTF-8"?> <svg xmlns="http://www.w3.org/2000/svg" xmlns:xlink="http://www.w3.org/1999/xlink" id="hugo-logo" width="296.189" height="103.926" viewBox="0 0 296.189 103.926"><defs><clipPath id="clip-path"><rect id="Rectangle_1646" data-name="Rectangle 1646" width="296.189" height="103.926" transform="translate(0 0)" fill="none"></rect></clipPath></defs><g id="Group_5136" data-name="Group 5136" clip-path="url(#clip-path)"><path id="Path_250" data-name="Path 250" d="M132.506,75.346A28.7,28.7,0,0,1,103.926,46.6V18.187h8.846V46.6a19.734,19.734,0,1,0,39.468,0V18.187h8.846V46.6a28.7,28.7,0,0,1-28.58,28.745" fill="#fff"></path><path id="Path_251" data-name="Path 251" d="M171.478,46.767a28.579,28.579,0,1,0,28.581-28.58,28.613,28.613,0,0,0-28.581,28.58m8.843,0A19.737,19.737,0,1,1,200.059,66.5a19.758,19.758,0,0,1-19.738-19.736" fill="#fff" fill-rule="evenodd"></path><path id="Path_252" data-name="Path 252" d="M239.03,46.767a28.579,28.579,0,1,0,28.58-28.58,28.612,28.612,0,0,0-28.58,28.58m8.843,0A19.737,19.737,0,1,1,267.61,66.5a19.758,19.758,0,0,1-19.737-19.736" fill="#fff" fill-rule="evenodd"></path><path id="Path_253" data-name="Path 253" d="M199.255,103.926a29.376,29.376,0,0,1-27.777-19.488l8.593-2.927a20.339,20.339,0,0,0,39.475-6.539V46.767h9.091V74.972a29.2,29.2,0,0,1-29.382,28.954" fill="#fff"></path><rect id="Rectangle_1644" data-name="Rectangle 1644" width="10.393" height="72.748" transform="translate(15.589 0)" fill="#fff"></rect><rect id="Rectangle_1645" data-name="Rectangle 1645" width="10.393" height="72.748" transform="translate(67.552 0)" fill="#fff"></rect><path id="Path_254" data-name="Path 254" d="M46.2,44.158c-6.644-.241-12.476-4.946-14.916-11.742l-.105-.293,8.18-3.544.136.377a7.981,7.981,0,0,0,7,5.546,7.74,7.74,0,0,0,7.489-5.394l.191-.529,8.18,3.544-.19.53c-2.58,7.187-8.89,11.762-15.967,11.505" fill="#fff"></path><path id="Path_255" data-name="Path 255" d="M12.991,22.084a6.5,6.5,0,1,1-6.5-6.495,6.494,6.494,0,0,1,6.5,6.495" fill="#fff"></path><path id="Path_256" data-name="Path 256" d="M96.132,22.084a6.5,6.5,0,1,1-6.5-6.495,6.494,6.494,0,0,1,6.5,6.495" fill="#fff"></path></g></svg> 