<?xml version="1.0" encoding="UTF-8"?> <svg xmlns="http://www.w3.org/2000/svg" xmlns:xlink="http://www.w3.org/1999/xlink" width="379.903" height="74.687" viewBox="0 0 379.903 74.687"><defs><clipPath id="clip-path"><rect id="Rectangle_1592" data-name="Rectangle 1592" width="366.516" height="74.687" fill="#fff"></rect></clipPath></defs><g id="indosole-logo" transform="translate(-3692.69 -5839)"><g id="Group_5099" data-name="Group 5099" transform="translate(3692.69 5839)"><g id="Group_5098" data-name="Group 5098" clip-path="url(#clip-path)"><path id="Path_125" data-name="Path 125" d="M253.64,14.074c.026-4.667-.985-9.514,1.948-14.074-1.15.088-2.022.077-2.865.232-3.506.633-4.15,1.412-4.15,4.847q0,12.13,0,24.261c0,.618-.052,1.239-.086,1.92a2.4,2.4,0,0,1-.457-.136c-.5-.46-1-.916-1.491-1.383-6.663-6.4-14.708-8.605-23.741-7.145A25.264,25.264,0,0,0,201.5,46.66a25.012,25.012,0,0,0,19.951,25.485c5.64,1.239,11.284.706,16.895-.393,4.049-.794,8.007-.89,11.872,1a19.379,19.379,0,0,0,4.232,1.074,57.14,57.14,0,0,1-.809-6.638c-.06-17.707-.094-35.411,0-53.118M248.681,56.6c-.562,4.858-3.183,8.2-8,9.595-6.734,1.953-13.543,2.85-20.415.585-12.606-4.163-17.91-19.811-10.359-30.553a21.66,21.66,0,0,1,30.966-4.961c5.007,3.773,8.045,8.815,8.142,15.243.022,1.283,0,2.571,0,3.858a.234.234,0,0,1,.049,0c-.124,2.078-.142,4.167-.382,6.23" transform="translate(-126.024)" fill="#fff"></path><path id="Path_126" data-name="Path 126" d="M873.529,87.552c5.307-1.6,10.644-3.111,15.91-4.832,3.311-1.081,4.487-3.236,3.33-6.461a21.607,21.607,0,0,0-3.536-6.388c-5.127-6.241-12.086-8.837-20.1-8.914-10.711-.107-19.307,4-24.044,13.581-4.674,9.451-4.064,19.049,2.614,27.57,10.052,12.823,30.842,12.978,41.344.533,2.449-2.9,2.438-5-.3-8.73-3.79,8.245-10.258,12.54-19.284,13.011-9.206.478-17.887-5.921-19.808-12.125.76-.25,1.4-.471,2.045-.669l21.831-6.575M849.4,90.064c-1.258.386-1.9.2-1.97-1.2-.4-8.024,1.959-14.872,8.753-19.825,2.884-2.1,7.108-3.233,12.573-3.277,4.73.037,9.708,1.294,13.666,5.193a17.371,17.371,0,0,1,2.341,2.85c1.775,2.729,1.1,4.836-1.966,5.958-2.509.919-5.086,1.67-7.648,2.453-8.58,2.618-17.172,5.2-25.749,7.844" transform="translate(-526.686 -38.538)" fill="#fff"></path><path id="Path_127" data-name="Path 127" d="M662.865,60.66c-14.666.011-26.2,11.191-26.213,25.4-.007,14.423,11.176,25.272,26.127,25.345,14.988.074,26.4-10.852,26.389-25.279-.008-14.372-11.475-25.478-26.3-25.467m.067,45.969c-11.917.037-21.273-8.881-21.352-20.355-.079-11.3,9.6-20.826,21.22-20.877,11.981-.055,21.37,8.929,21.423,20.5.056,11.834-9.041,20.693-21.292,20.734" transform="translate(-398.211 -38.352)" fill="#fff"></path><path id="Path_128" data-name="Path 128" d="M395.955,61.419c-14.487-.077-26.175,11.11-26.284,25.147-.112,14.552,11.018,25.5,26.033,25.6,14.992.107,26.419-10.771,26.471-25.191.049-14.342-11.378-25.481-26.22-25.559m.06,45.984c-11.895.074-21.509-9.061-21.528-20.454-.015-11.194,9.835-20.763,21.4-20.789,11.944-.026,21.307,9.017,21.333,20.6.023,11.7-9.09,20.572-21.2,20.646" transform="translate(-231.22 -38.832)" fill="#fff"></path><path id="Path_129" data-name="Path 129" d="M105.432,112.665c-2.4,0-4.67.11-6.91-.1-.408-.04-1.015-1.42-.97-2.144.318-5.2.933-10.374,1.154-15.571a135.594,135.594,0,0,0-.06-13.96c-.551-8.918-5.974-13.507-15.052-13.074-8.685.416-13.741,5.538-13.936,14.306-.116,5.207-.03,10.415-.03,15.622,0,4.35-.056,8.7.03,13.048.03,1.515-.438,2.041-2.011,1.993-2.955-.081-2.959,0-2.959-2.868q0-22.517,0-45.027c0-.89.131-1.776.225-3.03,1.18.519,1.9.872,2.633,1.151a16.692,16.692,0,0,0,10.442.735,26.066,26.066,0,0,1,12.966.136c6.932,1.7,11.445,6.928,12.532,14.42a45.881,45.881,0,0,1,.375,5.123c.273,8.135.479,16.273.786,24.408a40.677,40.677,0,0,0,.783,4.832" transform="translate(-40.459 -39.111)" fill="#fff"></path><path id="Path_130" data-name="Path 130" d="M549.5,110.808c-8.483,1.4-15.528-1.107-20.677-8.105-1.326-1.8-1.318-1.894.607-3.034,2.3-1.361,2.3-1.361,3.966.805,4.513,5.869,14.052,7.612,20.46,3.832,3.906-2.306,5.772-10.47-.037-14.556a26.41,26.41,0,0,0-5.12-2.637c-2.76-1.136-5.607-2.078-8.4-3.137-8.086-3.06-10.925-8.62-8.562-16.038,1.652-5.185,7.161-8.447,13.442-8.469a21.263,21.263,0,0,1,13.052,4.365c1.581,1.173,1.491,1.361.071,2.754-1.382,1.357-2.386,1.666-4.2.327-3.569-2.64-7.805-3.074-12.15-2.291-2.88.519-4.94,2.048-5.588,4.983-.7,3.166-.157,6.049,2.652,8.057a20.63,20.63,0,0,0,4.288,2.2c3.633,1.471,7.374,2.7,10.955,4.273,5.393,2.368,8.314,6.476,8.307,12.868.386,7.219-6.1,12.643-13.067,13.8" transform="translate(-330.188 -37.6)" fill="#fff"></path><path id="Path_131" data-name="Path 131" d="M798.29,72.63c.026-19.292.075-38.588.049-57.884a42.126,42.126,0,0,0-.659-7.671A57.957,57.957,0,0,0,795.582.3c2.393,0,5.03-.026,7.667.037.251.007.618.53.693.864a7.3,7.3,0,0,1,.052,1.648q0,28.85,0,57.7c0,4.913.27,9.771,3.019,14.324H798.29Z" transform="translate(-497.618 -0.187)" fill="#fff"></path><path id="Path_132" data-name="Path 132" d="M8.83,112.974c.026,1.82-.584,2.431-2.333,2.184-.491-.066-1.075.14-1.476-.055a3.038,3.038,0,0,1-1.206-1.2c-.184-.331-.041-.838-.041-1.269q0-22.49.022-44.983c0-.787.221-2.2.539-2.251a13.64,13.64,0,0,1,4.056.026c.2.026.378,1.066.382,1.636q.034,11.568.015,23.135c0,7.59-.06,15.181.041,22.771" transform="translate(-2.328 -41.262)" fill="#fff"></path><path id="Path_133" data-name="Path 133" d="M7.952,26.028a3.513,3.513,0,0,1-3.685,3.744,3.888,3.888,0,1,1-.157-7.752,4.1,4.1,0,0,1,3.843,4.008" transform="translate(0 -13.922)" fill="#fff"></path></g></g><path id="Path_134" data-name="Path 134" d="M197.327,5.97a5.644,5.644,0,1,1-11.288,0,5.644,5.644,0,1,1,11.288,0m-9.88,0a4.355,4.355,0,0,0,4.286,4.54A4.288,4.288,0,0,0,195.921,6a4.248,4.248,0,1,0-8.474-.035m3.38,2.945h-1.271V3.233a14.37,14.37,0,0,1,2.11-.174,2.848,2.848,0,0,1,1.875.451,1.446,1.446,0,0,1-.569,2.564v.07c.534.172.8.623.97,1.384a5.1,5.1,0,0,0,.4,1.386h-1.34a4.494,4.494,0,0,1-.435-1.386c-.1-.588-.436-.866-1.14-.866h-.6Zm.035-3.187h.6c.7,0,1.271-.242,1.271-.833,0-.519-.369-.866-1.173-.866a2.88,2.88,0,0,0-.7.071Z" transform="translate(3875.266 5902)" fill="#fff"></path></g></svg> 