<?xml version="1.0" encoding="UTF-8"?> <svg xmlns="http://www.w3.org/2000/svg" width="349.8" height="107.955" viewBox="0 0 349.8 107.955"><path id="MandC-logo" d="M37.109,0H47.761V2.006H45.755c-.351,0-.963.4-1.844,1.205s-1.322,1.43-1.322,1.844V35.643c0,.423.441,1.035,1.322,1.844S45.4,38.7,45.755,38.7h2.006v2H32.045V38.684h2.006c.351,0,.954-.4,1.8-1.214s1.268-1.421,1.268-1.844V6.009L22.347,41.428,7.593,5.4V35.634c0,.423.423,1.035,1.259,1.844s1.448,1.214,1.8,1.214h2v2H0V38.684H2.006c.423,0,1.053-.4,1.9-1.214s1.259-1.421,1.259-1.844V5.056c0-.414-.423-1.035-1.259-1.844s-1.475-1.205-1.9-1.205H0V0H11.8L24.038,30.47h.315ZM62.416,36.579a9.608,9.608,0,0,0,5.164-1.152,10.148,10.148,0,0,0,3.158-3.482h1.691a15.212,15.212,0,0,1-4.165,6.846,11.1,11.1,0,0,1-7.746,2.537,10.715,10.715,0,0,1-8.753-4.012,14.682,14.682,0,0,1-3.266-9.59A14.034,14.034,0,0,1,52.178,17.5a11.9,11.9,0,0,1,8.852-3.8,13.359,13.359,0,0,1,5.272.954,13.881,13.881,0,0,1,4.111,2.7L66.572,23.39l-1.583.1a10.688,10.688,0,0,0-.315-5.4,3.922,3.922,0,0,0-4.219-2.375,6.513,6.513,0,0,0-5.8,2.843,13.35,13.35,0,0,0-1.9,7.494,11.236,11.236,0,0,0,2.582,7.485,8.852,8.852,0,0,0,7.08,3.041ZM88.559,40.69H72.635V38.684h2.033c.423,0,1.053-.4,1.9-1.214s1.259-1.421,1.259-1.844V5.056c0-.414-.414-1.035-1.259-1.844a3.626,3.626,0,0,0-1.9-1.205H72.635V0H88.559V2.006H86.553c-.423,0-1.053.4-1.9,1.205s-1.259,1.43-1.259,1.844V21.717L97.942,5.479c.279-.351,0-1.017-.738-2s-1.34-1.475-1.691-1.475H93.561V0h14.754V2.006h-2.006A7.593,7.593,0,0,0,103.636,3.6c-1.412,1.089-2.249,1.8-2.537,2.06L91.2,16.3l14.232,18.892A11.8,11.8,0,0,0,107.8,37.3a6.036,6.036,0,0,0,2.483,1.376h2.951a3.266,3.266,0,0,0,1.8-1.053c.774-.711,1.16-1.3,1.16-1.8V19.189c0-.423-.387-.99-1.161-1.691a3.266,3.266,0,0,0-1.8-1.053h-1.592V14.439h9.383v21.4c0,.495.4,1.089,1.215,1.8a3.6,3.6,0,0,0,1.736,1.053h3.275c.351,0,.9-.351,1.682-1.053a2.789,2.789,0,0,0,1.161-1.8V19.189c0-.423-.387-.99-1.161-1.691s-1.331-1.053-1.682-1.053H125.56V14.439h8.33l1.053,5.353a45.133,45.133,0,0,1,4.588-4.219,9,9,0,0,1,5.74-1.8,7.2,7.2,0,0,1,5.227,2.114,7.314,7.314,0,0,1,2.159,5.479V35.841c0,.495.387,1.089,1.161,1.8s1.331,1.053,1.682,1.053h1.691v2H143.382V38.684h1.457a3.293,3.293,0,0,0,1.8-1.053c.774-.711,1.16-1.3,1.16-1.8V21.717a4.9,4.9,0,0,0-1.062-3.266,3.868,3.868,0,0,0-3.158-1.268,9.9,9.9,0,0,0-5.749,2.06q-2.888,2.051-2.888,3.428v13.17c0,.495.387,1.089,1.161,1.8a3.266,3.266,0,0,0,1.8,1.053h1.475v2H101.657L87.506,20.349l-4.111,4.426V35.634c0,.423.414,1.035,1.259,1.844s1.475,1.214,1.9,1.214h2.006Zm14.124,45.881-.126-.126q2.011,1.687,4.066,3.374T111,93.093h2.42V95.2h-4.426a13.872,13.872,0,0,1-5.272-.945,16.985,16.985,0,0,1-4.849-3.275,15.707,15.707,0,0,1-5.641,3.643,21.815,21.815,0,0,1-7.638,1.205,13.656,13.656,0,0,1-9-3.32,10.8,10.8,0,0,1-4.012-8.7h0a14.16,14.16,0,0,1,1.8-7.062,15.212,15.212,0,0,1,4.786-5.164,18.982,18.982,0,0,1-2.375-3.9,11.29,11.29,0,0,1-.9-4.633,8.537,8.537,0,0,1,2.627-6.693,10.328,10.328,0,0,1,7.188-2.375,12.883,12.883,0,0,1,4.435.63,8.574,8.574,0,0,0,2.951.639,4.974,4.974,0,0,0,1.16-.108,1.277,1.277,0,0,0,.738-.63h1.8V64.1h-1.8a8.7,8.7,0,0,0-2.7-5.164A8.546,8.546,0,0,0,85.6,55.876,8.034,8.034,0,0,0,80.426,57.4a5.182,5.182,0,0,0-1.9,4.264A6.585,6.585,0,0,0,80.111,66a10.346,10.346,0,0,0,4.219,2.951q3.9,4.228,8.429,8.483t8.645,7.962a13.279,13.279,0,0,0,1.637-3.9,19.874,19.874,0,0,0,.477-4.5,5.731,5.731,0,0,0-1.745-4.381,6.549,6.549,0,0,0-4.687-1.628V68.947h14.466v1.9h-1.574c-.351,0-1.044.594-2.06,1.8a5.281,5.281,0,0,0-1.529,2.636v.108a21.591,21.591,0,0,1-1.053,5.956,18.6,18.6,0,0,1-2.654,5.209ZM88.874,92.688a15.293,15.293,0,0,0,4.9-.738,15.546,15.546,0,0,0,3.949-1.988l-.315-.207q-4.5-4.012-8.852-8.223T80.12,72.671a12.811,12.811,0,0,0-2.42,3.6,12.523,12.523,0,0,0-.846,5.056,10.517,10.517,0,0,0,3.85,7.854,11.938,11.938,0,0,0,8.169,3.482Zm29.2-84.672h-.108a3.338,3.338,0,0,1-2.366-.954,3.05,3.05,0,0,1-1.008-2.321v-.1A3.14,3.14,0,0,1,115.6,2.159a3.877,3.877,0,0,1,4.948,0,3.14,3.14,0,0,1,1.008,2.483h-.108c.072,0,.108,0,.108.1a3.05,3.05,0,0,1-1.008,2.321,3.221,3.221,0,0,1-2.267.954Zm26.764,84.439a13.989,13.989,0,0,0,8.223-2.105,16.193,16.193,0,0,0,4.948-6.117h2.123a17.993,17.993,0,0,1-6.225,8.591,16.7,16.7,0,0,1-10.22,3.113,17.39,17.39,0,0,1-14.025-6.3,22.59,22.59,0,0,1-5.272-15.024,23.039,23.039,0,0,1,4.849-14.763,16.193,16.193,0,0,1,13.386-6.108,15.635,15.635,0,0,1,5.6.9,12.892,12.892,0,0,0,4.741.9,3.293,3.293,0,0,0,1.475-.27,3.985,3.985,0,0,0,1.053-.783h1.475V68.839h-1.8a15.114,15.114,0,0,0-3.266-7.908,10.418,10.418,0,0,0-9.068-4.741A11.137,11.137,0,0,0,134.5,59.3a15.591,15.591,0,0,0-3.6,9.959v-.207q-.108,1.161-.162,2.321c0,.774-.054,1.574-.054,2.42a28.291,28.291,0,0,0,.108,3c.108,1.017.144,1.952.207,2.8a14.907,14.907,0,0,0,4.111,9.113,12.784,12.784,0,0,0,9.725,3.742Zm33.286-59.141a7.476,7.476,0,0,1-2.375,5.9,8.753,8.753,0,0,1-6.063,2.114,10.031,10.031,0,0,1-4.219-.792,7.836,7.836,0,0,0-3.374-.792,1.88,1.88,0,0,0-1.152.261l-.846.684h-1.223V31.415h1.583a8.537,8.537,0,0,0,2.474,4.75,8.439,8.439,0,0,0,6.8,2.951,7.26,7.26,0,0,0,3.8-.846,2.969,2.969,0,0,0,1.367-2.7,3.473,3.473,0,0,0-1.628-3.212,27.888,27.888,0,0,0-3.32-1.745c-.99-.414-1.88-.8-2.7-1.152s-1.745-.738-2.8-1.161a13.854,13.854,0,0,1-4-2.8,6.027,6.027,0,0,1-1.583-4.372,6.819,6.819,0,0,1,2.114-5.4,10.013,10.013,0,0,1,9.428-1.161,6.621,6.621,0,0,0,2.906.693,2.186,2.186,0,0,0,.9-.162,1.151,1.151,0,0,0,.585-.585h1.367v8.1h-1.583a7.665,7.665,0,0,0-2.159-4.219,7.2,7.2,0,0,0-5.848-2.636,5.146,5.146,0,0,0-3.428.954,3.041,3.041,0,0,0-1.107,2.42,2.915,2.915,0,0,0,1.161,2.528,20.411,20.411,0,0,0,3.158,1.8c.99.414,1.916.8,2.8,1.152l2.9,1.161a14.242,14.242,0,0,1,4.111,2.636,6.3,6.3,0,0,1,2.006,4.876Zm6.9,38.585a13.188,13.188,0,0,1,3.958,10.121,13.332,13.332,0,0,1-3.958,10.175,12.883,12.883,0,0,1-9.113,3.742,13.018,13.018,0,0,1-9.23-3.742,13.332,13.332,0,0,1-3.949-10.175A13.2,13.2,0,0,1,185.07,71.9Zm-1.268,14.466v.207c.072-.774.117-1.547.153-2.321s.054-1.547.054-2.321,0-1.52-.054-2.258-.081-1.43-.153-2.06a8.736,8.736,0,0,0-2.267-5.164,7.377,7.377,0,0,0-5.533-1.9,7.2,7.2,0,0,0-5.4,1.9,8.618,8.618,0,0,0-2.267,5.056v-.135a15.53,15.53,0,0,0-.261,2.213c0,.774-.054,1.547-.054,2.312s0,1.529.054,2.267a12.874,12.874,0,0,0,.261,2.06,9.05,9.05,0,0,0,2.267,5.056,7.008,7.008,0,0,0,5.4,2.006,7.2,7.2,0,0,0,5.587-1.952A9,9,0,0,0,183.757,86.364ZM192.4,41.383a10.912,10.912,0,0,1-8.7-4.057,14.493,14.493,0,0,1-3.428-9.653,14.565,14.565,0,0,1,3.482-9.9,10.678,10.678,0,0,1,8.645-3.9,8.915,8.915,0,0,1,6.9,2.7,10.04,10.04,0,0,1,2.7,6.486l.108,1.9-17.507,1.4a11.218,11.218,0,0,0,2.519,6.927,8.258,8.258,0,0,0,6.954,3.32,9.9,9.9,0,0,0,5.218-1.152,9.32,9.32,0,0,0,3.113-3.383h1.583a14.25,14.25,0,0,1-4.012,6.8,10.876,10.876,0,0,1-7.575,2.456Zm-.108-25.513a6.6,6.6,0,0,0-5.956,2.789,11.182,11.182,0,0,0-1.952,5.857l13.179-1.125a11.129,11.129,0,0,0-.585-5.227q-.864-2.339-4.687-2.348Zm31.838,77.368c.423,0,1-.369,1.736-1.107s1.107-1.313,1.107-1.736V76a4.732,4.732,0,0,0-1-3.113,3.922,3.922,0,0,0-3.212-1.214,8.627,8.627,0,0,0-5.119,1.9q-2.582,1.907-2.582,3.167v13.7c0,.423.369,1,1.107,1.736s1.286,1.107,1.637,1.107h1.583v2.006H205.9V93.282h1.475c.423,0,1-.369,1.736-1.107s1.107-1.313,1.107-1.736V76.045a4.741,4.741,0,0,0-1.053-3.221A3.958,3.958,0,0,0,206,71.61a8.519,8.519,0,0,0-5.218,2.006q-2.582,2-2.582,3.374V90.484c0,.423.369,1,1.107,1.736s1.322,1.107,1.745,1.107h1.475v2.006H189.029V93.327h1.583c.351,0,.9-.369,1.628-1.107s1.107-1.313,1.107-1.736v-16.8c0-.414-.369-.981-1.107-1.682s-1.277-1.053-1.628-1.053h-1.583V68.947h8.1l1.053,5.065q2.321-2.429,4.219-4.066a8.007,8.007,0,0,1,5.4-1.628,7.755,7.755,0,0,1,4.633,1.421,5.946,5.946,0,0,1,2.429,4.165c1.61-1.547,3.095-2.852,4.426-3.9a8.268,8.268,0,0,1,5.272-1.583,7.332,7.332,0,0,1,5.164,1.952,7.2,7.2,0,0,1,2.114,5.542V90.3c0,.423.369,1,1.107,1.736s1.277,1.107,1.628,1.107h1.583v2.006H222.656V93.147ZM206.526,19.468a7.2,7.2,0,0,0-1.637-1.8c-.9-.774-1.493-1.161-1.8-1.161h-1.161V14.439h14.232v2.006h-1.682c-.351,0-.81.351-1.367,1.053a3.1,3.1,0,0,0-.846,1.8l6.3,12.964,5.8-12.865a2.618,2.618,0,0,0-.792-1.9q-.9-1.053-1.43-1.053h-1.736V14.439h10.652v2.006H229.9c-.351,0-.9.369-1.637,1.107A6.639,6.639,0,0,0,226.84,19.4l-9,19.081-7.737,14.871-2.294-1.17,8.007-14.448Zm47.761,48.813a8.924,8.924,0,0,1,7.584,3.688,15.887,15.887,0,0,1,2.7,9.7,16.193,16.193,0,0,1-3.059,10.121,9.4,9.4,0,0,1-7.8,4.012,10.112,10.112,0,0,1-5.533-1.322,10.894,10.894,0,0,1-3.535-3.949v12.649c0,.495.387,1.089,1.161,1.8s1.34,1.053,1.691,1.053h1.7v1.925h-13.89v-2.006H237a3.068,3.068,0,0,0,1.736-1.053,2.834,2.834,0,0,0,1.106-1.8V73.688c0-.414-.369-.981-1.107-1.682A3.068,3.068,0,0,0,237,70.953h-1.691V68.839h8.537l.846,5.488a13,13,0,0,1,4.057-4.642,9.959,9.959,0,0,1,5.542-1.475Zm5.272,17.714v.1l.207-2.105a20.612,20.612,0,0,0,.108-2.105,15.29,15.29,0,0,0-.108-1.844c-.072-.6-.144-1.179-.207-1.745a9,9,0,0,0-2.114-5,5.83,5.83,0,0,0-4.5-1.8,7.044,7.044,0,0,0-5.272,2.051,12.6,12.6,0,0,0-2.951,5.11v6.855a7.2,7.2,0,0,0,2.213,5.272,7.332,7.332,0,0,0,5.4,2.213h.108a6.3,6.3,0,0,0,5.056-1.952,9.473,9.473,0,0,0,2.06-5.119Zm59.564,4.426c0,.423.387,1,1.161,1.736s1.331,1.107,1.682,1.107h1.583V95.27H309.74V93.264h1.529c.36,0,.9-.369,1.691-1.107s1.161-1.313,1.161-1.736v-14.3a5.137,5.137,0,0,0-1-3.212,3.67,3.67,0,0,0-3.113-1.322,9.779,9.779,0,0,0-5.749,2.105q-2.906,2.123-2.9,3.374V90.349c0,.495.387,1.089,1.161,1.8a3.266,3.266,0,0,0,1.8,1.053h1.547v2.006H283.489l-.738-5.479a31.415,31.415,0,0,1-3.688,4.057A7.2,7.2,0,0,1,274,95.738a6.5,6.5,0,0,1-4.741-2.006,6.972,6.972,0,0,1-2.006-5.164,5.929,5.929,0,0,1,2.9-5.641,21.4,21.4,0,0,1,5.641-2.267l6.855-1.376.108-3.158a6.3,6.3,0,0,0-1.475-4.372,6.594,6.594,0,0,0-5.065-1.637,4.831,4.831,0,0,0-4.588,2.105,6.01,6.01,0,0,0,.27,5.488h-1.9l-3.6-5.272a14.745,14.745,0,0,1,10.966-4.219,12.4,12.4,0,0,1,7.278,2.06,6.819,6.819,0,0,1,2.951,5.955V90.358c0,.423.387.981,1.161,1.682s1.331,1.062,1.682,1.062H293.6a3.239,3.239,0,0,0,1.8-1.062c.774-.7,1.161-1.259,1.161-1.682V73.688c0-.414-.387-.981-1.161-1.682a3.266,3.266,0,0,0-1.8-1.053h-1.583V68.839h8.33l1.053,5.488a49.056,49.056,0,0,1,4.5-4.219,8.915,8.915,0,0,1,5.794-1.8,7.2,7.2,0,0,1,5.218,2.105,7.3,7.3,0,0,1,2.168,5.488Zm-36.372-9.347-6.3,1.583a5.848,5.848,0,0,0-3.482,1.943,5.4,5.4,0,0,0-.954,3.221v.1a4.066,4.066,0,0,0,1.161,2.906,3.787,3.787,0,0,0,2.852,1.205h.153a5.946,5.946,0,0,0,3.8-1.574,11.848,11.848,0,0,0,2.7-3.059ZM349.8,68.947v2.006h-1.268c-.279,0-.792.369-1.529,1.107a13.4,13.4,0,0,0-1.529,1.736l-8.852,19.189-7.908,14.763-2.213-1.16,7.908-14.448L325.132,73.9a7.4,7.4,0,0,0-1.637-1.8c-.9-.774-1.457-1.161-1.736-1.161H320.49v-2h14.232v2.006h-1.583c-.351,0-.828.351-1.421,1.053a3.058,3.058,0,0,0-.9,1.8l6.3,12.973,5.829-13.009a2.429,2.429,0,0,0-.792-1.8c-.594-.7-1.071-1.053-1.421-1.053H339.05v-1.97Z" fill="#fff"></path></svg> 