<?xml version="1.0" encoding="UTF-8"?> <svg xmlns="http://www.w3.org/2000/svg" width="71" height="71" viewBox="0 0 71 71"><g id="marketing-icon" transform="translate(1357 17405)"><rect id="Rectangle_1657" data-name="Rectangle 1657" width="71" height="71" transform="translate(-1357 -17405)" fill="#62b6cb"></rect><g id="megaphone" transform="translate(-1343 -17432.484)"><g id="Group_5147" data-name="Group 5147" transform="translate(0 45.484)"><g id="Group_5146" data-name="Group 5146"><path id="Path_279" data-name="Path 279" d="M39.218,62.193a4.29,4.29,0,0,0-3.772-4.253V46.954a1.468,1.468,0,0,0-2.737-.738,17.586,17.586,0,0,1-10.864,8.111,23.089,23.089,0,0,1-6.776.9.849.849,0,0,0-.133,0H7.121a7.12,7.12,0,0,0-.676,14.208L8.8,79.13a2.847,2.847,0,0,0,2.774,2.18h1.636a2.854,2.854,0,0,0,2.774-3.529L13.964,69.47h.971a.846.846,0,0,0,.134,0,23.09,23.09,0,0,1,6.777.9A17.586,17.586,0,0,1,32.71,78.482a1.449,1.449,0,0,0,1.259.732,1.507,1.507,0,0,0,.392-.052,1.452,1.452,0,0,0,1.086-1.417V66.758a4.29,4.29,0,0,0,3.772-4.253v-.313ZM14.063,77.078l.269,1.106a1.153,1.153,0,0,1-1.12,1.425H11.575a1.15,1.15,0,0,1-1.12-.88L8.2,69.47h4.009l.6,2.471h-.407a.851.851,0,0,0,0,1.7h.821l.422,1.733h-.267a.851.851,0,1,0,0,1.7Zm.108-12.921H8.882a.851.851,0,0,0,0,1.7H14.17v1.909H12.927l-.047,0H7.1A5.419,5.419,0,0,1,7.121,56.93h7.05v7.227Zm19.574-5.4V76.913a19.619,19.619,0,0,0-11.491-8.2,25.647,25.647,0,0,0-6.381-.953V56.934a25.648,25.648,0,0,0,6.381-.953,19.619,19.619,0,0,0,11.491-8.2Zm3.772,3.746a2.587,2.587,0,0,1-2.07,2.531V59.661a2.587,2.587,0,0,1,2.07,2.531Z" transform="translate(0 -45.484)" fill="#fff"></path><path id="Path_280" data-name="Path 280" d="M454.737,143.007a.848.848,0,0,0,.573-.222l2.454-2.235a.851.851,0,0,0-1.146-1.258l-2.454,2.235a.851.851,0,0,0,.573,1.48Z" transform="translate(-415.265 -131.106)" fill="#fff"></path><path id="Path_281" data-name="Path 281" d="M455.31,302.245a.851.851,0,1,0-1.146,1.258l2.454,2.235a.851.851,0,0,0,1.146-1.258Z" transform="translate(-415.265 -280.194)" fill="#fff"></path><path id="Path_282" data-name="Path 282" d="M472.588,233.68H470.7a.851.851,0,0,0,0,1.7h1.885a.851.851,0,1,0,0-1.7Z" transform="translate(-429.873 -217.666)" fill="#fff"></path><path id="Path_283" data-name="Path 283" d="M54.817,265.454a.84.84,0,0,0-.078-.147.857.857,0,0,0-.382-.313.9.9,0,0,0-.159-.048.842.842,0,0,0-.333,0,.861.861,0,0,0-.159.048.873.873,0,0,0-.147.078.827.827,0,0,0-.235.235.84.84,0,0,0-.078.147.859.859,0,0,0-.049.159.838.838,0,0,0-.017.166.854.854,0,0,0,.017.167.9.9,0,0,0,.049.159.863.863,0,0,0,.078.146.816.816,0,0,0,.106.129.856.856,0,0,0,.436.233.864.864,0,0,0,.333,0,.883.883,0,0,0,.159-.048.865.865,0,0,0,.146-.078.92.92,0,0,0,.13-.106.863.863,0,0,0,.184-.276.9.9,0,0,0,.049-.159.852.852,0,0,0,.016-.167.837.837,0,0,0-.016-.166A.859.859,0,0,0,54.817,265.454Z" transform="translate(-48.655 -246.256)" fill="#fff"></path></g></g></g></g></svg> 