<?xml version="1.0" encoding="UTF-8"?> <svg xmlns="http://www.w3.org/2000/svg" width="71" height="71" viewBox="0 0 71 71"><g id="media-icon" transform="translate(-302 -333)"><rect id="Rectangle_1657" data-name="Rectangle 1657" width="71" height="71" transform="translate(302 333)" fill="#62b6cb"></rect><g id="media" transform="translate(316 347)"><path id="Path_266" data-name="Path 266" d="M170.393,150.692a2.072,2.072,0,0,0-2.033,1.687l-6.637,2.757h-2.406a1.865,1.865,0,0,0-1.911,1.811v3.115a1.815,1.815,0,0,0,1.165,1.667v4.066a1.956,1.956,0,0,0,3.912,0v-3.606l5.878,2.442a2.069,2.069,0,0,0,4.1-.382v-2.331a3.523,3.523,0,0,0,0-6.825v-2.331A2.071,2.071,0,0,0,170.393,150.692Zm-7.911,5.5,5.842-2.427v9.479l-5.842-2.427Zm-3.811.755a.6.6,0,0,1,.645-.545h1.9v4.2h-1.9a.6.6,0,0,1-.645-.545v-3.115Zm1.855,9.537a.691.691,0,0,1-.69-.69v-3.922h1.38v3.922A.691.691,0,0,1,160.526,166.484Zm10.67-2.237a.8.8,0,1,1-1.606,0V152.761a.8.8,0,0,1,1.606,0Zm2.647-5.743a2.275,2.275,0,0,1-1.382,2.08v-4.16A2.275,2.275,0,0,1,173.844,158.5Z" transform="translate(-144.15 -138.001)" fill="#fff"></path><path id="Path_267" data-name="Path 267" d="M37.313,32.38A4.895,4.895,0,0,0,34.3,33.407l-2.869-2.869a13.3,13.3,0,0,0,3.451-8.346h2.3a3,3,0,1,0,0-1.266h-2.3a13.3,13.3,0,0,0-3.451-8.346L34.3,9.711a4.9,4.9,0,0,0,3,1.027h0a.633.633,0,0,0,0-1.266A3.667,3.667,0,1,1,39.906,8.4a3.7,3.7,0,0,1-.527.437.633.633,0,1,0,.714,1.045,4.964,4.964,0,0,0,.708-.587,4.933,4.933,0,1,0-7.394-.477l-2.869,2.869a13.3,13.3,0,0,0-8.346-3.451v-2.3a3,3,0,1,0-1.266,0v2.3a13.3,13.3,0,0,0-8.346,3.451L9.711,8.816a4.929,4.929,0,1,0-.895.9l2.87,2.87a13.331,13.331,0,0,0-1.815,2.528.633.633,0,0,0,1.108.612,12.083,12.083,0,1,1-.944,2.206.633.633,0,0,0-1.208-.379,13.433,13.433,0,0,0-.6,3.378H5.935a3,3,0,1,0,0,1.266H8.224a13.3,13.3,0,0,0,3.462,8.345l-2.87,2.87a4.933,4.933,0,1,0-3.011,8.839.633.633,0,0,0,0-1.266A3.667,3.667,0,1,1,8.4,39.906a3.7,3.7,0,0,1-.576.47.633.633,0,0,0,.7,1.056A4.936,4.936,0,0,0,9.711,34.3l2.869-2.869a13.3,13.3,0,0,0,8.346,3.451v2.3a3,3,0,1,0,1.266,0v-2.3a13.3,13.3,0,0,0,8.346-3.451L33.407,34.3a4.931,4.931,0,1,0,3.906-1.922ZM19.823,3a1.736,1.736,0,1,1,1.736,1.736A1.738,1.738,0,0,1,19.823,3ZM3.212,8.4A3.667,3.667,0,1,1,5.805,9.472,3.643,3.643,0,0,1,3.212,8.4Zm36.9,11.425a1.736,1.736,0,1,1-1.736,1.736A1.738,1.738,0,0,1,40.117,19.823ZM3,23.295a1.736,1.736,0,1,1,1.736-1.736A1.738,1.738,0,0,1,3,23.295ZM23.295,40.117a1.736,1.736,0,1,1-1.736-1.736A1.738,1.738,0,0,1,23.295,40.117Zm16.611-.211a3.667,3.667,0,1,1,1.074-2.593A3.643,3.643,0,0,1,39.906,39.906Z" fill="#fff"></path></g></g></svg> 