<?xml version="1.0" encoding="UTF-8"?> <svg xmlns="http://www.w3.org/2000/svg" width="71" height="71" viewBox="0 0 71 71"><g id="media-icon" transform="translate(1357 17524)"><rect id="Rectangle_1657" data-name="Rectangle 1657" width="71" height="71" transform="translate(-1357 -17524)" fill="#62b6cb"></rect><g id="media" transform="translate(-1342 -17546)"><g id="XMLID_1114_" transform="translate(0 40)"><path id="XMLID_1119_" d="M36.455,40H23.761a.789.789,0,1,0,0,1.578H36.455a2.37,2.37,0,0,1,2.367,2.367v19.1H1.578v-19.1a2.37,2.37,0,0,1,2.367-2.367H16.66a.789.789,0,1,0,0-1.578H3.945A3.95,3.95,0,0,0,0,43.945v26.2a3.95,3.95,0,0,0,3.945,3.945H36.455A3.95,3.95,0,0,0,40.4,70.142v-26.2A3.95,3.95,0,0,0,36.455,40Zm0,32.509H3.945a2.37,2.37,0,0,1-2.367-2.367V64.619H38.822v5.523A2.37,2.37,0,0,1,36.455,72.509Z" transform="translate(0 -40)" fill="#fff"></path><path id="XMLID_1192_" d="M72.292,372a2.367,2.367,0,1,0,2.367,2.367A2.37,2.37,0,0,0,72.292,372Zm0,3.156a.789.789,0,1,1,.789-.789A.79.79,0,0,1,72.292,375.156Z" transform="translate(-64.407 -345.803)" fill="#fff"></path><path id="XMLID_1245_" d="M193.432,392H173.778a.789.789,0,0,0,0,1.578h19.654a.789.789,0,0,0,0-1.578Z" transform="translate(-159.339 -364.225)" fill="#fff"></path><path id="XMLID_1248_" d="M204.885,139.366v4.785a2.246,2.246,0,0,0,3.376,1.949l4.144-2.393a2.25,2.25,0,0,0,0-3.9l-4.144-2.393a2.25,2.25,0,0,0-3.376,1.949Zm1.578,0a.661.661,0,0,1,.336-.582.693.693,0,0,1,.34-.092.658.658,0,0,1,.333.092l4.144,2.393a.672.672,0,0,1,0,1.164l-4.144,2.393a.672.672,0,0,1-1.008-.582v-4.785Z" transform="translate(-188.718 -129.449)" fill="#fff"></path><path id="XMLID_1249_" d="M246.919,41.578a.788.788,0,1,0-.559-.231A.8.8,0,0,0,246.919,41.578Z" transform="translate(-226.709 -40)" fill="#fff"></path></g></g></g></svg> 