<?xml version="1.0" encoding="UTF-8"?> <svg xmlns="http://www.w3.org/2000/svg" xmlns:xlink="http://www.w3.org/1999/xlink" width="349.133" height="85.633" viewBox="0 0 349.133 85.633"><defs><clipPath id="clip-path"><rect id="Rectangle_1583" data-name="Rectangle 1583" width="349.133" height="85.633" fill="#fff"></rect></clipPath></defs><g id="muuse-logo" transform="translate(0 0)"><g id="Group_5097" data-name="Group 5097" transform="translate(0 0)" clip-path="url(#clip-path)"><path id="Path_116" data-name="Path 116" d="M69.494,24.116a23.526,23.526,0,0,0-.57-4.906A24.544,24.544,0,0,0,46.709.063,24.536,24.536,0,0,0,35.4,1.906a1.725,1.725,0,0,1-1.189.033,24.167,24.167,0,0,0-8.3-1.9,24.105,24.105,0,0,0-20.261,8.9A22.574,22.574,0,0,0,.077,23.421C-.07,34,.041,44.58.022,55.16c0,.692.2.909.893.9,2.628-.033,5.25-.014,7.878-.014,1.176,0,1.176,0,1.176-1.146q0-14.729.014-29.458a11.452,11.452,0,0,1,.247-2.413,14.461,14.461,0,0,1,8.606-10.539,13.227,13.227,0,0,1,5.275-1.14c-.157.38-.244.619-.353.844-.57,1.178-1.208,2.329-1.7,3.537a26.188,26.188,0,0,0-1.7,10.086q0,12.681,0,25.365c0,2.943,1.629,4.813,4.417,4.838q10,.086,20.005,0a4.155,4.155,0,0,0,4.3-4.507q.008-13.662.005-27.33A23.565,23.565,0,0,0,45.8,12.2a6.827,6.827,0,0,1-.347-.9c.88.111,1.575.174,2.264.293A14.563,14.563,0,0,1,59.585,25.694q0,14.689-.016,29.377c0,.747.2,1,.969.994,2.65-.041,5.3-.016,7.952-.016,1.029,0,1.029,0,1.029-1.056.005-10.292.03-20.584-.024-30.876m-30.27,7.555c0,.861,0,1.721,0,2.576V37.06q0,3.16-.005,6.326A4.415,4.415,0,0,1,36.252,47.6a4.166,4.166,0,0,1-4.965-1.485,5.1,5.1,0,0,1-.945-2.674c-.068-6.116-.084-12.233.019-18.349a13.557,13.557,0,0,1,3.589-8.777c.768-.885.88-.893,1.618-.043a14.183,14.183,0,0,1,3.649,9.4c.016,2,.011,4,.008,6.008" transform="translate(-0.001 -0.001)" fill="#fff"></path><path id="Path_117" data-name="Path 117" d="M47,33.5a24.236,24.236,0,0,1-11.937,12.23,23.419,23.419,0,0,1-12.613,2.242A24.082,24.082,0,0,1,3.519,36.134,22.724,22.724,0,0,1,.148,25.915C.066,24.9.1,23.871.015,22.853c-.068-.793.252-.983.991-.956,1.336.054,2.677.016,4.015.016,1.42,0,2.834.016,4.254-.005.508-.011.69.171.695.684a14.648,14.648,0,0,0,13.077,14.1,14.812,14.812,0,0,0,14.236-7.3,14.6,14.6,0,0,0,1.919-6.8c.011-.51.2-.684.706-.681q4.255.02,8.508,0c.47,0,.643.171.665.643A23.779,23.779,0,0,1,47,33.5" transform="translate(0.01 37.545)" fill="#fff"></path><path id="Path_118" data-name="Path 118" d="M46.155,22.776c-.005,9.5-4,16.835-12.048,21.865a22.974,22.974,0,0,1-10.072,3.312,24.3,24.3,0,0,1-9.635-.961c-.2-.06-.394-.133-.768-.258.893-.565,1.656-1.021,2.389-1.515a26.26,26.26,0,0,0,7.642-8.033,2.09,2.09,0,0,1,1.159-.787A14.591,14.591,0,0,0,34,29.867a13.427,13.427,0,0,0,2.194-7.118c.011-.657.212-.855.863-.847q4.133.041,8.267-.005c.687-.005.833.252.833.88" transform="translate(23.376 37.547)" fill="#fff"></path><path id="Path_119" data-name="Path 119" d="M20.589,31.4a12.01,12.01,0,0,1-6.871,3.426,14.814,14.814,0,0,1-2.818.133,1.2,1.2,0,0,1-.88-.557A23.886,23.886,0,0,1,7.55,24.9c-.027-.779.005-1.558-.011-2.34-.008-.462.168-.66.649-.657,2.859.014,5.717.008,8.573,0,.421,0,.638.144.646.584a14.635,14.635,0,0,0,3.114,8.72.763.763,0,0,1,.068.2" transform="translate(12.928 37.554)" fill="#fff"></path><path id="Path_120" data-name="Path 120" d="M91.27,45.644a3.105,3.105,0,0,1-.114.538H84.347v-1.83c-.022-6.657.068-13.319-.1-19.973a8.55,8.55,0,0,0-8.934-8.5,8.762,8.762,0,0,0-8.563,8.774c-.068,3.668-.014,7.333-.014,11,0,3.046.005,6.089-.005,9.138,0,.453-.06.9-.1,1.42H59.8c0-.543.005-1.086,0-1.623-.011-6.765.043-13.523-.065-20.288a8.764,8.764,0,0,0-17.359-1.371,15.564,15.564,0,0,0-.271,2.91c-.024,6.144-.014,12.285-.014,18.428v1.963h-6.9c-.038-.557-.092-1.051-.092-1.553-.005-6.456-.024-12.906.008-19.362.035-7.658,4.124-13.4,11.131-15.705A15.625,15.625,0,0,1,62.672,14.2a5.4,5.4,0,0,0,.557.472,16.381,16.381,0,0,1,8.473-5.3A15.614,15.614,0,0,1,91.24,24.119c.212,7.17.035,14.351.03,21.526" transform="translate(60.173 15.219)" fill="#fff"></path><path id="Path_121" data-name="Path 121" d="M133.338,39.013a10.791,10.791,0,0,1-9.543,7.224c-8.823.119-17.654.049-26.478.049a3.519,3.519,0,0,1-.646-.122V39.235h1.594q12.086,0,24.159-.005c2.826,0,4.591-1.569,4.6-4.064.005-2.446-1.83-4.089-4.612-4.094-4.851-.008-9.708.065-14.557-.019-4.4-.079-7.876-1.952-9.942-5.932a10.581,10.581,0,0,1,.714-11.541,11.031,11.031,0,0,1,8.484-4.688c.459-.046.931-.011,1.4-.011h25.373v7.012h-1.594q-12.241,0-24.466.005a4.068,4.068,0,0,0-1.7,7.84,5.935,5.935,0,0,0,2.115.3c4.8.03,9.6-.03,14.4.024,8.039.1,13.33,7.512,10.7,14.948" transform="translate(165.544 15.207)" fill="#fff"></path><path id="Path_122" data-name="Path 122" d="M151.8,23.563a18.681,18.681,0,1,0-35.944,9.991c4.262,13.167,21.067,17.076,30.949,7.33a37.2,37.2,0,0,0,3.556-4.615,36.6,36.6,0,0,0-6.977-.326,4.573,4.573,0,0,0-2.362.814,12.018,12.018,0,0,1-9.122,2.47c-4.371-.543-8.524-4.1-9.312-8.09h1.982c8.606,0,17.239-.027,25.872.027,1.276,0,1.792-.38,1.71-1.656a47.889,47.889,0,0,0-.353-5.945m-29.157.489a9.143,9.143,0,0,1,3.041-5,7.456,7.456,0,0,1,.706-.6,11.564,11.564,0,0,1,6.76-2.5,12.006,12.006,0,0,1,4.045.624c.6.217,1.194.462,1.765.733a16.147,16.147,0,0,1,1.629.977A10.376,10.376,0,0,1,142,19.518a9.32,9.32,0,0,1,1.167,1.357,7.806,7.806,0,0,1,.869,1.52,9.094,9.094,0,0,1,.543,1.656Z" transform="translate(196.976 15.201)" fill="#fff"></path><path id="Path_123" data-name="Path 123" d="M97.312,27.667c-.266,8.28-4.319,14.084-11.94,17.345-6.312,2.7-14.69,1.04-19.78-3.991a17.751,17.751,0,0,1-5.6-12.515c-.133-6.3-.054-12.591-.068-18.892a5.655,5.655,0,0,1,.1-.692h6.879v1.762q0,8.283,0,16.566A11.843,11.843,0,0,0,76.294,39.1a11.582,11.582,0,0,0,13.015-6.83,14.874,14.874,0,0,0,1.045-5.538c.138-5.37.049-10.737.049-16.107V8.9h6.939v4.053c0,4.9.128,9.814-.03,14.712" transform="translate(102.743 15.265)" fill="#fff"></path><path id="Path_124" data-name="Path 124" d="M115.445,10.593q.008,8.67,0,17.34a18.365,18.365,0,0,1-14.907,17.986A18.629,18.629,0,0,1,78.483,31a6.993,6.993,0,0,1-.187-1.376q-.02-10.067,0-20.13a4.16,4.16,0,0,1,.128-.6h6.583c.03.567.084,1.11.084,1.653q.008,8.364.005,16.723c.005,6.651,5.351,12.176,11.693,12.1a11.934,11.934,0,0,0,11.845-12.113q.008-8.291,0-16.569V8.932h6.738c.024.567.073,1.113.073,1.661" transform="translate(134.25 15.246)" fill="#fff"></path><rect id="Rectangle_1582" data-name="Rectangle 1582" width="21.936" height="0.027" transform="translate(319.615 39.254)" fill="#fff"></rect></g></g></svg> 