<?xml version="1.0" encoding="UTF-8"?> <svg xmlns="http://www.w3.org/2000/svg" xmlns:xlink="http://www.w3.org/1999/xlink" width="277.632" height="68.239" viewBox="0 0 277.632 68.239"><defs><clipPath id="clip-path"><rect id="Rectangle_1580" data-name="Rectangle 1580" width="277.632" height="68.239" fill="#fff"></rect></clipPath></defs><g id="nizoral-logo" transform="translate(10 0)"><g id="Group_5096" data-name="Group 5096" transform="translate(-10 0)" clip-path="url(#clip-path)"><path id="Path_109" data-name="Path 109" d="M18.353,29.741,17.806,28.4q-4.33-10.57-6.6-17.487.42,5.411.649,10.062t.232,7.717v36.95H0V1.811H19.321L31.192,29.826q2.44,5.75,4.372,11.262t3.363,10.8q-.627-4.612-.943-9.25t-.311-9.289V1.811H49.758V65.643h-16.5Z" transform="translate(0 0.748)" fill="#fff"></path><path id="Path_110" data-name="Path 110" d="M55.083,5.331A4.635,4.635,0,0,1,53.3,9.405q-1.787,1.259-5.686,1.258-3.993,0-5.794-1.28a4.619,4.619,0,0,1-1.8-4.051,4.576,4.576,0,0,1,1.844-4.047Q43.7,0,47.611,0q3.858,0,5.664,1.284a4.618,4.618,0,0,1,1.809,4.047M53.946,66.391h-12.8V13.363a30.306,30.306,0,0,0,3.564.986,14.358,14.358,0,0,0,2.9.315,14.636,14.636,0,0,0,2.767-.293,26.514,26.514,0,0,0,3.568-1.009Z" transform="translate(16.527 0)" fill="#fff"></path><path id="Path_111" data-name="Path 111" d="M53.577,62.4V49.492l24.1-28.6h-24.1V9.658H90.824V22.586L65.709,52.308H90.233V62.4Z" transform="translate(22.13 3.989)" fill="#fff"></path><path id="Path_112" data-name="Path 112" d="M105.755,64.748q-11.662,0-17.886-7.6T81.641,35.36q0-13.054,6.227-19.978T105.84,8.451q11.829,0,17.913,7.01T129.835,36.2q0,13.733-6.273,21.142t-17.807,7.406m.023-10.947a10.638,10.638,0,0,0,9.076-4.26q3.179-4.265,3.181-12.159,0-8.65-2.909-12.532t-9.347-3.887q-6.232,0-9.285,3.78T93.44,36.249q0,8.569,3.154,13.061a10.527,10.527,0,0,0,9.183,4.492" transform="translate(33.722 3.491)" fill="#fff"></path><path id="Path_113" data-name="Path 113" d="M118.551,62.9V10.157h11.954V23.845h.418l.338-2.207q1.085-7.285,3.79-10.232t7.974-2.955a14.443,14.443,0,0,1,3.475.418,12.4,12.4,0,0,1,3.185,1.287V24.8a9.24,9.24,0,0,0-3.332-2.559,10.179,10.179,0,0,0-4.207-.853A8.775,8.775,0,0,0,133.98,26q-2.639,4.612-2.634,14.256V62.9Z" transform="translate(48.968 3.491)" fill="#fff"></path><path id="Path_114" data-name="Path 114" d="M171,62.9V53.789a19.39,19.39,0,0,1-6.339,8.218,15.748,15.748,0,0,1-9.289,2.741,14.71,14.71,0,0,1-10.929-4.18,14.88,14.88,0,0,1-4.15-10.955,12.553,12.553,0,0,1,3.968-9.525q3.964-3.766,14.087-7.047,1.393-.413,3.892-1.167,8.084-2.34,8.081-5.847a5.053,5.053,0,0,0-2.483-4.43,12.282,12.282,0,0,0-6.784-1.629,19.449,19.449,0,0,0-9.525,2.568,30.288,30.288,0,0,0-8.676,7.526V17.025a23.592,23.592,0,0,1,8.89-6.281,29.427,29.427,0,0,1,11.542-2.293,25.41,25.41,0,0,1,9.672,1.72,15.745,15.745,0,0,1,6.685,4.944,12.913,12.913,0,0,1,2.1,4.608,38.151,38.151,0,0,1,.632,8.17V62.9Zm-.382-25.616q-2.626,1.219-7.192,3.025Q152.8,44.549,152.8,49.67a5.4,5.4,0,0,0,1.816,4.2,6.691,6.691,0,0,0,4.656,1.635,9.872,9.872,0,0,0,8.379-4.177q3.092-4.178,3.092-11.4c0-.7-.008-1.231-.021-1.6a8.064,8.064,0,0,0-.107-1.053" transform="translate(57.946 3.491)" fill="#fff"></path><rect id="Rectangle_1579" data-name="Rectangle 1579" width="12.795" height="64.827" transform="translate(246.691 1.564)" fill="#fff"></rect><path id="Path_115" data-name="Path 115" d="M200.788,7.713a7.375,7.375,0,1,1-14.749,0,7.375,7.375,0,1,1,14.749,0m-12.91,0a5.69,5.69,0,0,0,5.6,5.932,5.6,5.6,0,0,0,5.473-5.887,5.551,5.551,0,1,0-11.073-.045M192.3,11.56h-1.66V4.136a18.777,18.777,0,0,1,2.757-.228,3.721,3.721,0,0,1,2.45.589,1.889,1.889,0,0,1-.743,3.35V7.94c.7.225,1.05.814,1.268,1.809a6.665,6.665,0,0,0,.527,1.812h-1.751a5.871,5.871,0,0,1-.568-1.812c-.131-.769-.569-1.132-1.489-1.132h-.79Zm.045-4.164h.79c.916,0,1.66-.317,1.66-1.088,0-.678-.482-1.132-1.533-1.132a3.763,3.763,0,0,0-.917.093Z" transform="translate(76.844 0.119)" fill="#fff"></path></g></g></svg> 