<?xml version="1.0" encoding="UTF-8"?> <svg xmlns="http://www.w3.org/2000/svg" width="71" height="71" viewBox="0 0 71 71"><g id="seo-icon" transform="translate(1227 17524)"><rect id="Rectangle_1609" data-name="Rectangle 1609" width="71" height="71" transform="translate(-1227 -17524)" fill="#62b6cb"></rect><g id="Outline" transform="translate(-1229 -17526)"><path id="Path_275" data-name="Path 275" d="M17.437,29.653H16V26.779a3.6,3.6,0,0,1,3.593-3.593H44.026V21.749H42.589a.719.719,0,0,1-.508-1.227l4.312-4.312a.719.719,0,0,1,1.016,0l4.312,4.312a.719.719,0,0,1-.508,1.227H49.775v1.437h2.874a3.6,3.6,0,0,1,3.593,3.593V41.151H54.805V26.779a2.158,2.158,0,0,0-2.156-2.156H49.775V37.558H48.338V21.03a.719.719,0,0,1,.719-.719h.421L46.9,17.735l-2.577,2.577h.421a.719.719,0,0,1,.719.719V38.277H44.026V24.623H19.593a2.158,2.158,0,0,0-2.156,2.156ZM19.593,51.93H31.562l-1.725,5.749H28.216v1.437h15.81V57.679H42.4L41.481,54.6l-1.377.413.8,2.668H31.338l1.725-5.749h5.215V50.493H19.593a2.158,2.158,0,0,1-2.156-2.156v-.719H37.558V46.182H17.437V31.091H16V48.337A3.6,3.6,0,0,0,19.593,51.93ZM41.152,39.714v-11.5H38.277V44.744H19.593V43.307h2.874V37.558a.719.719,0,0,1,.719-.719H27.5a.719.719,0,0,1,.719.719v5.749h1.437V32.528a.719.719,0,0,1,.719-.719h4.312a.719.719,0,0,1,.719.719V43.307H36.84V27.5a.719.719,0,0,1,.719-.719H41.87a.719.719,0,0,1,.719.719V39.714ZM26.779,38.277H23.9v5.03h2.874Zm7.186-5.03H31.091V43.307h2.874ZM19.593,26.06V27.5H21.03V26.06Zm4.312,0H22.468V27.5H23.9Zm1.437,0V27.5h1.437V26.06ZM58.485,55.437a2.155,2.155,0,0,1-1.524,3.68,2.2,2.2,0,0,1-1.524-.632L52,55.045A8.63,8.63,0,1,1,55.045,52Zm-3.68-7.818A7.186,7.186,0,1,0,47.619,54.8a7.186,7.186,0,0,0,7.186-7.186Zm2.664,8.834L54.2,53.184A8.7,8.7,0,0,1,53.185,54.2l3.269,3.269a.718.718,0,1,0,1.015-1.015Zm-4.1-8.834a5.749,5.749,0,1,1-5.749-5.749A5.749,5.749,0,0,1,53.368,47.619Zm-1.437,0a4.312,4.312,0,1,0-4.312,4.312A4.312,4.312,0,0,0,51.931,47.619Zm-7.186,0h1.437a1.439,1.439,0,0,1,1.437-1.437V44.744A2.878,2.878,0,0,0,44.745,47.619Zm9.342-27.307h1.437A4.316,4.316,0,0,0,51.212,16v1.437a2.878,2.878,0,0,1,2.874,2.874Z" transform="translate(0 0)" fill="#fff"></path></g></g></svg> 