<?xml version="1.0" encoding="UTF-8"?> <svg xmlns="http://www.w3.org/2000/svg" width="71" height="71" viewBox="0 0 71 71"><g id="strategy-icon" transform="translate(232 17223)"><rect id="Rectangle_1609" data-name="Rectangle 1609" width="71" height="71" transform="translate(-232 -17223)" fill="#62b6cb"></rect><g id="strategy" transform="translate(-219 -17215.559)"><path id="Path_257" data-name="Path 257" d="M115.126,87.382a2.163,2.163,0,1,0-1.726-.863l-3.55,4.961a2.155,2.155,0,0,0-2.143.472L105.34,90.61a2.161,2.161,0,1,0-4.224,0l-2.366,1.343a2.157,2.157,0,1,0,.641,1.127l2.366-1.343a2.155,2.155,0,0,0,2.941,0l2.366,1.343a2.161,2.161,0,1,0,3.839-.843l3.55-4.961A2.154,2.154,0,0,0,115.126,87.382Zm0-3.025a.864.864,0,1,1-.864.864A.865.865,0,0,1,115.126,84.357ZM97.278,94.4a.864.864,0,1,1,.864-.864A.865.865,0,0,1,97.278,94.4Zm5.949-3.378a.864.864,0,1,1,.864-.864A.865.865,0,0,1,103.228,91.02Zm5.949,3.378a.864.864,0,1,1,.864-.864A.865.865,0,0,1,109.177,94.4Z" transform="translate(-86.897 -69.891)" fill="#fff"></path><path id="Path_258" data-name="Path 258" d="M36.2,69.229H1.834a.538.538,0,0,1-.537-.537V41.95a.538.538,0,0,1,.537-.537H4.889a.648.648,0,1,0,0-1.3H1.834A1.836,1.836,0,0,0,0,41.95V68.692a1.836,1.836,0,0,0,1.834,1.834H6.3v1.427a1.476,1.476,0,0,0,1.474,1.474h6.488l-3.054,5.963a.648.648,0,1,0,1.154.591l3.357-6.554h7.167l3.357,6.554a.648.648,0,1,0,1.154-.591l-3.054-5.963h6.488a1.475,1.475,0,0,0,1.474-1.474V70.525H36.2a.648.648,0,0,0,0-1.3Zm-5.184,2.723a.178.178,0,0,1-.177.177H7.777a.178.178,0,0,1-.177-.177V70.525H31.011Z" transform="translate(0 -30.658)" fill="#fff"></path><path id="Path_259" data-name="Path 259" d="M79.719,10.755h29.295a.538.538,0,0,1,.537.537v6.163a.648.648,0,0,0,1.3,0V11.292a1.836,1.836,0,0,0-1.834-1.834H95.14V8.184a1.628,1.628,0,0,0-1.626-1.626H89.571a1.628,1.628,0,0,0-1.626,1.626V9.458H79.719a.648.648,0,1,0,0,1.3Zm9.522-2.571a.33.33,0,0,1,.33-.33h3.943a.33.33,0,0,1,.33.33V9.458h-4.6V8.184Z" transform="translate(-72.237)" fill="#fff"></path><path id="Path_260" data-name="Path 260" d="M98.05,267.576a.648.648,0,0,0-.648.648v5.728a.648.648,0,0,0,.648.648h2.63a.648.648,0,0,0,.648-.648v-5.728a.648.648,0,0,0-.648-.648Zm1.982,5.728H98.7v-4.431h1.333Z" transform="translate(-88.984 -238.459)" fill="#fff"></path><path id="Path_261" data-name="Path 261" d="M166.885,229.248a.648.648,0,0,0-.648.648v9.04a.648.648,0,0,0,.648.648h2.63a.648.648,0,0,0,.648-.648V229.9a.648.648,0,0,0-.648-.648Zm1.982,9.04h-1.333v-7.744h1.333Z" transform="translate(-151.87 -203.443)" fill="#fff"></path><path id="Path_262" data-name="Path 262" d="M235.721,267.576a.648.648,0,0,0-.648.648v5.728a.648.648,0,0,0,.648.648h2.63a.648.648,0,0,0,.648-.648v-5.728a.648.648,0,0,0-.648-.648ZM237.7,273.3h-1.333v-4.431H237.7Z" transform="translate(-214.756 -238.459)" fill="#fff"></path><path id="Path_263" data-name="Path 263" d="M304.557,311.832a.648.648,0,0,0-.648.648v1.9a.648.648,0,0,0,.648.648h2.63a.648.648,0,1,0,0-1.3h-1.982V312.48A.648.648,0,0,0,304.557,311.832Z" transform="translate(-277.643 -278.89)" fill="#fff"></path><path id="Path_264" data-name="Path 264" d="M313.911,165.177l-3.719-6.441a8.476,8.476,0,1,0-8.382,2.392,8.519,8.519,0,0,0,2.206.292,8.366,8.366,0,0,0,1.908-.22l3.718,6.441a2.464,2.464,0,1,0,4.268-2.464Zm-11.765-5.3a7.176,7.176,0,1,1,5.445-.717A7.129,7.129,0,0,1,302.146,159.876Zm10.215,7.545a1.169,1.169,0,0,1-1.6-.427l-3.577-6.2a8.507,8.507,0,0,0,2.021-1.168l3.578,6.2a1.167,1.167,0,0,1-.427,1.6Z" transform="translate(-269.991 -125.996)" fill="#fff"></path><path id="Path_265" data-name="Path 265" d="M334.334,179.225a6.134,6.134,0,0,0-.307-4.444.648.648,0,1,0-1.173.552,4.855,4.855,0,1,1-1.464-1.809.648.648,0,1,0,.782-1.034,6.156,6.156,0,1,0,2.161,6.734Z" transform="translate(-294.444 -150.45)" fill="#fff"></path></g></g></svg> 